<svg width="288" height="48" fill="none" xmlns="http://www.w3.org/2000/svg">
  <path d="M4 10V8h2V6h276v2h2v2h2v32h-2v2h-2v2H6v-2H4v-2H2V10h2z" stroke="#141020" stroke-opacity=".2" stroke-width="4"/>
  <path d="M7 7V5h2V3h270v2h2v2h2v24h-2v2h-2v2H9v-2H7v-2H5V7h2z" fill="#EDEDFF" stroke="#fff" stroke-width="2"/>
  <path fill="#373BD3" d="M8 36h272v6H8zM6 34h2v6H6zM4 32h2v6H4zM282 32h2v6h-2zM280 34h2v6h-2z"/>
  <path d="M5 5V3h2V1h274v2h2v2h2v34h-2v2h-2v2H7v-2H5v-2H3V5h2z" stroke="#202125" stroke-width="2"/>
  <path fill-rule="evenodd" clip-rule="evenodd"
        d="M139 2h24v2h-2v2h-2v2h-2v2h-2v2h-2v2h-2v2h-2v2h-2v2h-2v2h-2v2h-2v2h-2v2h-2v2h-2v2h-2v2h-24v-2h2v-2h2v-2h2v-2h2v-2h2v-2h2v-2h2v-2h2v-2h2v-2h2v-2h2v-2h2V8h2V6h2V4h2V2zm8 26h-2v2h-2v2h-2v2h8v-2h2v-2h2v-2h2v-2h2v-2h2v-2h2v-2h2v-2h2v-2h2v-2h2v-2h2v-2h2V8h2V6h2V4h2V2h-8v2h-2v2h-2v2h-2v2h-2v2h-2v2h-2v2h-2v2h-2v2h-2v2h-2v2h-2v2h-2v2z"
        fill="#fff"/>
</svg>
