<svg width="8" height="112" viewBox="0 0 8 112" fill="none" xmlns="http://www.w3.org/2000/svg">
  <path d="M2 8H6V6H8V2H6V4H4V6H2V8Z" fill="#FAFAFF"/>
  <path d="M4 0H8V2H6V4H4V6H2V8H0V4H2V2H4V0Z" fill="#202125"/>
  <rect x="6" y="6" width="2" height="2" fill="#EDEDFF"/>
  <rect x="4" y="8" width="2" height="88" fill="#EDEDFF"/>
  <rect x="2" y="8" width="2" height="88" fill="#FAFAFF"/>
  <rect y="8" width="2" height="88" fill="#202125"/>
  <rect x="6" y="8" width="2" height="88" fill="#EDEDFF"/>
  <path d="M2 96H6V98H8V102H6V100H4V98H2V96Z" fill="#FAFAFF"/>
  <path d="M0 106H2V108H4V110H8V112H2V110H0V106Z" fill="#060968" fill-opacity="0.4"/>
  <path d="M4 110H8V108H6V106H4V104H2V96H0V106H2V108H4V110Z" fill="#202125"/>
  <rect x="6" y="96" width="2" height="2" fill="#EDEDFF"/>
  <path d="M4 98H2V104H4V106H6V108H8V102H6V100H4V98Z" fill="#373BD3"/>
</svg>
