<svg width="272" height="112" viewBox="0 0 272 112" fill="none" xmlns="http://www.w3.org/2000/svg">
  <rect width="272" height="2" fill="#202125"/>
  <rect y="2" width="272" height="2" fill="#FAFAFF"/>
  <rect y="4" width="272" height="96" fill="#EDEDFF"/>
  <path fill-rule="evenodd" clip-rule="evenodd"
        d="M167 4H191V5.84615H167V4ZM163 7.69247H187V9.53863H163V7.69247ZM161 9.53871H185V11.3849H183V13.2306H159V11.3844H161V9.53871ZM175 18.7694V20.6155H151V18.7694H175ZM143 26.1538V27.9999H167V26.1538H143ZM133 59.3849V57.5387H109V59.3844H107V61.2306H131V59.3849H133ZM183 26.1538V27.9999H175V26.1538H183ZM147 59.3849V61.2306H139V59.3844H141V57.5387H149V59.3849H147ZM141 51.9999V50.1538H117V51.9999H141ZM191 18.7694V20.6155H183V18.7694H191ZM149 50.1538V51.9999H157V50.1538H149ZM125 42.7694V44.6155H149V42.7694H125ZM191 11.3844H193V9.53871H201V11.3849H199V13.2306H191V11.3844ZM157 42.7694V44.6155H165V42.7694H157ZM161 31.6925V33.5386H137V31.6925H161ZM169 31.6925V33.5386H177V31.6925H169ZM169 24.3075V26.1537H145V24.3075H169ZM135 57.5386V55.6925H111V57.5386H135ZM185 24.3075V26.1537H177V24.3075H185ZM143 55.6925V57.5386H151V55.6925H143ZM177 16.9231V18.7693H153V16.9231H177ZM143 50.1537V48.3075H119V50.1537H143ZM193 16.9231V18.7693H185V16.9231H193ZM151 48.3075V50.1537H159V48.3075H151ZM127 40.9231V42.7693H151V40.9231H127ZM159 40.9231V42.7693H167V40.9231H159ZM163 29.8462V31.6924H139V29.8462H163ZM171 29.8462V31.6924H179V29.8462H171ZM147 22.4613H149V20.6156H173V22.4617H171V24.3074H147V22.4613ZM137 55.6924V53.8462H113V55.6924H137ZM179 22.4613H181V20.6156H189V22.4617H187V24.3074H179V22.4613ZM153 55.6924V53.8462H145V55.6924H153ZM179 15.0769V16.923H155V15.0769H179ZM123 46.4613H121V48.3074H145V46.4617H147V44.6156H123V46.4613ZM195 15.0769V16.923H187V15.0769H195ZM161 46.4617V48.3074H153V46.4613H155V44.6156H163V46.4617H161ZM129 39.0769V40.923H153V39.0769H129ZM203 7.69247V9.53863H195V7.69247H203ZM169 40.923V39.0769H161V40.923H169ZM133 35.3844V37.2306H157V35.3849H159V33.5387H135V35.3844H133ZM199 4H207V5.84615H199V4ZM173 35.3849V37.2306H165V35.3844H167V33.5387H175V35.3849H173ZM165 28V29.8462H141V28H165ZM129 61.2306V63.0768H105V61.2306H129ZM127 64.923V63.0769H103V64.923H127ZM125 64.9231V66.7693H101V64.9231H125ZM123 68.6155V66.7694H99V68.6155H123ZM181 28V29.8462H173V28H181ZM145 61.2306V63.0768H137V61.2306H145ZM143 64.923V63.0769H135V64.923H143ZM141 64.9231V66.7693H133V64.9231H141ZM139 68.6155V66.7694H131V68.6155H139ZM117 72.3075V74.1537H93V72.3075H117ZM133 74.1537V72.3075H125V74.1537H133ZM119 72.3074V70.4617H121V68.6156H97V70.4613H95V72.3074H119ZM135 70.4617V72.3074H127V70.4613H129V68.6156H137V70.4617H135ZM115 74.1538V75.9999H91V74.1538H115ZM113 77.8462V76H89V77.8462H113ZM111 77.8462V79.6924H87V77.8462H111ZM109 81.5386V79.6925H85V81.5386H109ZM107 81.5387V83.3849H105V85.2306H81V83.3844H83V81.5387H107ZM131 75.9999V74.1538H123V75.9999H131ZM129 76V77.8462H121V76H129ZM127 79.6924V77.8462H119V79.6924H127ZM125 79.6925V81.5386H117V79.6925H125ZM123 83.3849V81.5387H115V83.3844H113V85.2306H121V83.3849H123ZM139 53.8462V52H115V53.8462H139ZM155 53.8462V52H147V53.8462H155ZM157 13.2306H181V15.0768H157V13.2306ZM197 13.2306V15.0768H189V13.2306H197ZM165 5.84624H189V7.69239H165V5.84624ZM155 39.0768V37.2306H131V39.0768H155ZM197 5.84624H205V7.69239H197V5.84624ZM171 39.0768V37.2306H163V39.0768H171ZM101 87.0769V88.923H77V87.0769H101ZM117 88.923V87.0769H109V88.923H117ZM103 85.2306V87.0768H79V85.2306H103ZM119 87.0768V85.2306H111V87.0768H119ZM99 88.9231V90.7693H75V88.9231H99ZM97 92.6155V90.7694H73V92.6155H97ZM95 92.6156V94.4617H93V96.3074H69V94.4613H71V92.6156H95ZM91 96.3075V98.1537H67V96.3075H91ZM115 90.7693V88.9231H107V90.7693H115ZM113 90.7694V92.6155H105V90.7694H113ZM111 94.4617V92.6156H103V94.4613H101V96.3074H109V94.4617H111ZM107 98.1537V96.3075H99V98.1537H107ZM89 98.1538V99.9999H65V98.1538H89ZM105 99.9999V98.1538H97V99.9999H105Z"
        fill="#FAFAFF"/>
  <rect y="100" width="272" height="2" fill="#FAFAFF"/>
  <rect y="102" width="272" height="6" fill="#373BD3"/>
  <rect y="108" width="272" height="2" fill="#202125"/>
  <rect y="110" width="272" height="2" fill="#060968" fill-opacity="0.4"/>
</svg>
