<svg width="18" height="10" viewBox="0 0 18 10" fill="none" xmlns="http://www.w3.org/2000/svg">
  <path fill-rule="evenodd" clip-rule="evenodd"
        d="M1.31674e-06 0.000549316L1.05339e-06 2.00055L2 2.00055L2 4.00055L4 4.00055L4 6.00055L6 6.00055L6 8.00055L8 8.00055L8 10.0005L10 10.0005L10 8.00055L12 8.00055L12 6.00055L14 6.00055L14 4.00055L16 4.00055L16 2.00055L18 2.00055L18 0.000545373L16 0.000545811L16 2.00055L14 2.00055L14 4.00055L12 4.00055L12 6.00055L10 6.00055L10 8.00055L8 8.00055L8 6.00055L6 6.00055L6 4.00055L4 4.00055L4 2.00055L2 2.00055L2 0.000548878L1.31674e-06 0.000549316Z"
        fill="#171A82"/>
</svg>
