<svg width="8" height="44" viewBox="0 0 8 44" fill="none" xmlns="http://www.w3.org/2000/svg">
  <path d="M4 0.000549316H8V2.00055H6V4.00055H4V6.00055H2V8.00055H0V4.00055H2V2.00055H4V0.000549316Z" fill="#171A82"/>
  <path fill-rule="evenodd" clip-rule="evenodd" d="M6 2.00055H8V6.00055V8.00055H6H2V6.00055H4V4.00055H6V2.00055Z" fill="#FAFAFF"/>
  <rect x="2" y="8.00055" width="6" height="28" fill="#FAFAFF"/>
  <rect y="8.00055" width="2" height="28" fill="#171A82"/>
  <path d="M4 44.0008H8V42.0008H6V40.0008H4V38.0008H2V36.0008H0V40.0008H2V42.0008H4V44.0008Z" fill="#171A82"/>
  <path d="M7.99951 42.0011L5.99951 42.0009L5.9997 40.0009L3.9997 40.0007L3.99988 38.0007L1.99988 38.0006L2.00006 36.0005L8 36.0008L7.99951 42.0011Z" fill="#FAFAFF"/>
</svg>
