<svg width="6" height="108" viewBox="0 0 6 108" fill="none" xmlns="http://www.w3.org/2000/svg">
  <path d="M0 102L4 102L4 104L6 104L6 108L4 108L4 106L2 106L2 104L-3.49691e-07 104L0 102Z" fill="#5256E0"/>
  <rect x="6" y="104" width="2" height="2" transform="rotate(-180 6 104)" fill="#5256E0"/>
  <rect width="2" height="96" transform="matrix(1 1.74846e-07 1.74846e-07 -1 0 102)" fill="#5256E0"/>
  <rect width="4" height="96" transform="matrix(1 1.74846e-07 1.74846e-07 -1 2 102)" fill="#5256E0"/>
  <path d="M0 6L4 6L4 4L6 4L6 1.04907e-06L4 6.99382e-07L4 2L2 2L2 4L3.49691e-07 4L0 6Z" fill="#5256E0"/>
  <rect x="6" y="6" width="2" height="2" transform="rotate(-180 6 6)" fill="#5256E0"/>
</svg>
