<svg width="24" height="24" viewBox="0 0 24 24" fill="none" xmlns="http://www.w3.org/2000/svg">
<path fill-rule="evenodd" clip-rule="evenodd" d="M3 4.99996L3 2.99996L5 2.99996L5 4.99996L3 4.99996ZM5 4.99996L7 4.99996L7 6.99996L5 6.99996L5 4.99996ZM7 8.99996L7 6.99996L9 6.99996L9 8.99996L7 8.99996ZM9 8.99996L11 8.99996L11 11L9 11L9 8.99996ZM15 13L15 15L13 15L13 13L15 13ZM17 17L17 15L15 15L15 17L17 17ZM19 19L19 17L17 17L17 19L19 19ZM19 19L21 19L21 21L19 21L19 19ZM11 11L11 13L13 13L13 11L11 11ZM19 4.99996L19 2.99996L21 2.99996L21 4.99996L19 4.99996ZM17 6.99996L17 4.99996L19 4.99996L19 6.99996L17 6.99996ZM15 8.99996L15 6.99996L17 6.99996L17 8.99996L15 8.99996ZM15 8.99996L15 11L13 11L13 8.99996L15 8.99996ZM5 21L5 19L7 19L7 17L9 17L9 15L11 15L11 13L9 13L9 15L7 15L7 17L5 17L5 19L3 19L3 21L5 21Z" fill="#1F23AD"/>
</svg>
