<svg width="512" height="512" viewBox="0 0 512 512" fill="none" xmlns="http://www.w3.org/2000/svg">
  <rect width="512" height="512" rx="90" fill="#1F23A0"/>
  <path
    d="M456 109.608C456 108.575 455.163 107.738 454.131 107.738V107.738C453.098 107.738 452.262 106.902 452.262 105.869V105.869C452.262 104.837 451.425 104 450.392 104H442.916C441.884 104 441.047 104.837 441.047 105.869V105.869C441.047 106.902 440.21 107.738 439.177 107.738H437.308H431.701C430.669 107.738 429.832 106.902 429.832 105.869V105.869C429.832 104.837 428.995 104 427.963 104H424.224C423.192 104 422.355 104.837 422.355 105.869V105.869C422.355 106.902 421.518 107.738 420.486 107.738V107.738V107.738C419.454 107.738 418.617 108.575 418.617 109.608V111.477C418.617 113.542 416.943 115.215 414.878 115.215H413.009C411.977 115.215 411.14 116.052 411.14 117.085V117.085C411.14 118.117 410.303 118.954 409.271 118.954H405.533C404.5 118.954 403.664 118.117 403.664 117.085V117.085C403.664 116.052 402.827 115.215 401.794 115.215H398.056C397.024 115.215 396.187 116.052 396.187 117.085V117.085C396.187 118.117 395.35 118.954 394.318 118.954V118.954C393.285 118.954 392.449 119.791 392.449 120.823V120.823C392.449 121.856 391.612 122.692 390.579 122.692V122.692C389.547 122.692 388.71 123.529 388.71 124.562V124.562C388.71 125.594 387.873 126.431 386.841 126.431H383.103C382.071 126.431 381.234 127.268 381.234 128.3V128.3C381.234 129.333 380.397 130.169 379.364 130.169H375.626C374.594 130.169 373.757 131.006 373.757 132.039V132.039C373.757 133.071 372.92 133.908 371.888 133.908H368.15C367.117 133.908 366.28 134.745 366.28 135.777V135.777C366.28 136.81 367.117 137.646 368.15 137.646H383.103C384.135 137.646 384.972 136.81 384.972 135.777V135.777C384.972 134.745 385.809 133.908 386.841 133.908V133.908C387.873 133.908 388.71 134.745 388.71 135.777V141.385V150.731C388.71 151.764 387.873 152.6 386.841 152.6V152.6C385.809 152.6 384.972 153.437 384.972 154.47V173.162C384.972 174.195 384.135 175.031 383.103 175.031V175.031C382.07 175.031 381.234 175.868 381.234 176.901V191.855C381.234 192.887 380.397 193.724 379.364 193.724V193.724C378.332 193.724 377.495 194.561 377.495 195.593V214.286C377.495 215.318 376.658 216.155 375.626 216.155V216.155C374.594 216.155 373.757 216.992 373.757 218.024V227.37V229.24C373.757 230.272 372.92 231.109 371.888 231.109V231.109C370.856 231.109 370.019 231.946 370.019 232.978V232.978C370.019 234.01 369.182 234.847 368.149 234.847H364.411C363.379 234.847 362.542 235.684 362.542 236.717V236.717C362.542 237.749 361.705 238.586 360.673 238.586H356.935C355.902 238.586 355.065 239.423 355.065 240.455V240.455C355.065 241.488 355.902 242.324 356.935 242.324H362.542H366.28H368.149C369.182 242.324 370.019 243.161 370.019 244.194V244.194C370.019 245.226 370.856 246.063 371.888 246.063V246.063C372.92 246.063 373.757 246.9 373.757 247.932V247.932C373.757 248.964 374.594 249.801 375.626 249.801H379.364C380.397 249.801 381.234 248.964 381.234 247.932V247.932C381.234 246.9 382.07 246.063 383.103 246.063V246.063C384.135 246.063 384.972 245.226 384.972 244.194V244.194C384.972 243.161 385.809 242.324 386.841 242.324V242.324C387.873 242.324 388.71 241.487 388.71 240.455V240.455V240.455C388.71 239.423 389.547 238.586 390.579 238.586V238.586C391.612 238.586 392.449 237.749 392.449 236.717V236.717C392.449 235.684 393.285 234.847 394.318 234.847V234.847C395.35 234.847 396.187 235.684 396.187 236.717V236.717C396.187 237.749 397.024 238.586 398.056 238.586V238.586C399.088 238.586 399.925 239.423 399.925 240.455V240.455C399.925 241.487 400.762 242.324 401.794 242.324H405.533C406.565 242.324 407.402 241.487 407.402 240.455V240.455C407.402 239.423 408.239 238.586 409.271 238.586V238.586C410.303 238.586 411.14 237.749 411.14 236.717V232.978C411.14 231.946 411.977 231.109 413.009 231.109V231.109C414.042 231.109 414.878 230.272 414.878 229.24V229.24C414.878 228.207 415.715 227.37 416.748 227.37H420.486C421.518 227.37 422.355 226.534 422.355 225.501V225.501C422.355 224.469 423.192 223.632 424.224 223.632H429.832H431.701C432.733 223.632 433.57 222.795 433.57 221.763V221.763C433.57 220.73 432.733 219.893 431.701 219.893V219.893C430.669 219.893 429.832 219.057 429.832 218.024V218.024C429.832 216.992 428.995 216.155 427.963 216.155H420.486C419.454 216.155 418.617 216.992 418.617 218.024V218.024C418.617 219.057 417.78 219.893 416.748 219.893V219.893C415.715 219.893 414.878 219.057 414.878 218.024V214.286C414.878 213.253 415.715 212.416 416.748 212.416V212.416C417.78 212.416 418.617 211.58 418.617 210.547V195.593C418.617 194.561 419.454 193.724 420.486 193.724V193.724C421.518 193.724 422.355 192.887 422.355 191.855V176.901C422.355 175.868 423.192 175.031 424.224 175.031V175.031C425.257 175.031 426.093 174.195 426.093 173.162V161.947C426.093 160.914 426.93 160.077 427.963 160.077V160.077C428.995 160.077 429.832 159.241 429.832 158.208V139.516C429.832 138.483 430.669 137.646 431.701 137.646V137.646C432.733 137.646 433.57 136.81 433.57 135.777V130.169V120.823C433.57 119.791 434.407 118.954 435.439 118.954V118.954C436.472 118.954 437.308 118.117 437.308 117.085V117.085C437.308 116.052 438.145 115.215 439.178 115.215H442.916C443.948 115.215 444.785 114.379 444.785 113.346V113.346C444.785 112.314 445.622 111.477 446.654 111.477H454.131C455.163 111.477 456 110.64 456 109.608V109.608ZM414.878 146.993C414.878 148.025 414.042 148.862 413.009 148.862V148.862C411.977 148.862 411.14 149.699 411.14 150.731V165.685C411.14 166.718 410.303 167.554 409.271 167.554V167.554C408.239 167.554 407.402 168.391 407.402 169.424V188.116C407.402 189.149 406.565 189.985 405.533 189.985V189.985C404.5 189.985 403.664 190.822 403.664 191.855V206.809C403.664 207.841 402.827 208.678 401.794 208.678V208.678C400.762 208.678 399.925 209.515 399.925 210.547V219.894C399.925 221.958 398.252 223.632 396.187 223.632V223.632C394.122 223.632 392.449 221.958 392.449 219.894V203.07C392.449 202.038 393.285 201.201 394.318 201.201V201.201C395.35 201.201 396.187 200.364 396.187 199.332V184.378C396.187 183.345 397.024 182.508 398.056 182.508V182.508C399.088 182.508 399.925 181.672 399.925 180.639V161.947C399.925 160.914 400.762 160.077 401.794 160.077V160.077C402.827 160.077 403.664 159.241 403.664 158.208V143.254C403.664 142.222 404.5 141.385 405.533 141.385V141.385C406.565 141.385 407.402 140.548 407.402 139.516V133.908V133.908C407.402 131.843 409.076 130.169 411.14 130.169V130.169V130.169C413.205 130.169 414.878 131.843 414.878 133.908V137.646V146.993Z"
    fill="url(#paint0_linear)"/>
  <path
    d="M241.046 195.594C240.014 195.594 239.177 194.757 239.177 193.725V189.986C239.177 188.954 238.34 188.117 237.308 188.117V188.117C236.276 188.117 235.439 187.28 235.439 186.248V186.248C235.439 185.215 234.602 184.378 233.57 184.378V184.378C232.538 184.378 231.701 183.541 231.701 182.509V182.509C231.701 181.477 230.864 180.64 229.831 180.64H218.617C217.584 180.64 216.747 181.477 216.747 182.509V182.509C216.747 183.541 215.91 184.378 214.878 184.378H211.14C210.108 184.378 209.271 185.215 209.271 186.248V186.248C209.271 187.28 208.434 188.117 207.402 188.117V188.117C206.369 188.117 205.532 188.954 205.532 189.986V189.986C205.532 191.018 204.696 191.855 203.663 191.855V191.855C202.631 191.855 201.794 192.692 201.794 193.724V197.463C201.794 198.495 200.957 199.332 199.925 199.332V199.332C198.893 199.332 198.056 200.169 198.056 201.201V208.679C198.056 209.711 197.219 210.548 196.187 210.548V210.548C195.154 210.548 194.317 211.385 194.317 212.417V223.633C194.317 224.665 193.481 225.502 192.448 225.502V225.502C191.416 225.502 190.579 226.339 190.579 227.371V242.325C190.579 243.357 189.742 244.194 188.71 244.194V244.194C187.678 244.194 186.841 245.031 186.841 246.063V268.495C186.841 269.527 187.678 270.364 188.71 270.364V270.364C189.742 270.364 190.579 271.201 190.579 272.233V275.972C190.579 277.004 191.416 277.841 192.448 277.841V277.841C193.481 277.841 194.317 278.678 194.317 279.71V279.71C194.317 280.742 195.154 281.579 196.187 281.579H207.401C208.434 281.579 209.271 280.742 209.271 279.71V279.71C209.271 278.678 210.108 277.841 211.14 277.841H214.878C215.91 277.841 216.747 277.004 216.747 275.971V275.971C216.747 274.939 217.584 274.102 218.617 274.102H222.355C223.387 274.102 224.224 273.265 224.224 272.233V272.233C224.224 271.201 225.061 270.364 226.093 270.364V270.364C227.125 270.364 227.962 269.527 227.962 268.495V266.625V264.756C227.962 263.724 228.799 262.887 229.831 262.887V262.887C230.864 262.887 231.701 262.05 231.701 261.018V253.54C231.701 252.508 232.538 251.671 233.57 251.671V251.671C234.602 251.671 235.439 250.834 235.439 249.802V238.586C235.439 237.554 236.276 236.717 237.308 236.717V236.717C238.34 236.717 239.177 235.88 239.177 234.848V219.894C239.177 218.862 240.014 218.025 241.046 218.025V218.025C242.079 218.025 242.916 217.188 242.916 216.156V206.809V197.463C242.916 196.431 242.079 195.594 241.046 195.594V195.594ZM227.962 212.417C227.962 213.449 227.125 214.286 226.093 214.286V214.286C225.061 214.286 224.224 215.123 224.224 216.155V231.11C224.224 232.142 223.387 232.979 222.355 232.979V232.979C221.323 232.979 220.486 233.816 220.486 234.848V242.325C220.486 243.357 219.649 244.194 218.617 244.194V244.194C217.584 244.194 216.747 245.031 216.747 246.063V253.541C216.747 254.573 215.911 255.41 214.878 255.41V255.41C213.846 255.41 213.009 256.247 213.009 257.279V262.887V262.887C213.009 264.951 211.335 266.625 209.271 266.625H207.402C206.369 266.625 205.532 265.788 205.532 264.756V264.756C205.532 263.724 204.696 262.887 203.663 262.887V262.887C202.631 262.887 201.794 262.05 201.794 261.018V249.802C201.794 248.77 202.631 247.933 203.663 247.933V247.933C204.696 247.933 205.532 247.096 205.532 246.064V231.109C205.532 230.077 206.369 229.24 207.402 229.24V229.24C208.434 229.24 209.271 228.403 209.271 227.371V219.894C209.271 218.862 210.108 218.025 211.14 218.025V218.025C212.172 218.025 213.009 217.188 213.009 216.156V208.678C213.009 207.646 213.846 206.809 214.878 206.809V206.809C215.911 206.809 216.747 205.972 216.747 204.94V199.332C216.747 197.267 218.421 195.594 220.486 195.594V195.594C222.55 195.594 224.224 197.267 224.224 199.332V201.202C224.224 202.234 225.061 203.071 226.093 203.071V203.071C227.125 203.071 227.962 203.908 227.962 204.94V206.809V212.417Z"
    fill="url(#paint1_linear)"/>
  <path
    d="M190.579 197.463C190.579 196.431 189.742 195.594 188.71 195.594V195.594C187.678 195.594 186.841 194.757 186.841 193.725V193.725C186.841 192.692 186.004 191.855 184.971 191.855H181.233C180.201 191.855 179.364 192.692 179.364 193.725V193.725C179.364 194.757 178.527 195.594 177.495 195.594V195.594C176.463 195.594 175.626 196.431 175.626 197.463V204.94C175.626 205.973 174.789 206.809 173.757 206.809V206.809C172.724 206.809 171.887 207.646 171.887 208.679V219.894C171.887 220.927 171.051 221.763 170.018 221.763V221.763C168.986 221.763 168.149 222.6 168.149 223.633V231.11C168.149 232.142 167.312 232.979 166.28 232.979V232.979C165.248 232.979 164.411 233.816 164.411 234.848V238.587C164.411 239.619 163.574 240.456 162.542 240.456V240.456C161.509 240.456 160.673 241.293 160.673 242.325V242.325C160.673 243.358 159.836 244.194 158.803 244.194H156.934C154.87 244.194 153.196 242.521 153.196 240.456V238.587C153.196 237.554 154.033 236.717 155.065 236.717V236.717C156.097 236.717 156.934 235.881 156.934 234.848V227.371C156.934 226.339 157.771 225.502 158.803 225.502V225.502C159.836 225.502 160.673 224.665 160.673 223.633V219.894C160.673 218.862 161.509 218.025 162.542 218.025V218.025C163.574 218.025 164.411 217.188 164.411 216.156V212.417C164.411 211.385 163.574 210.548 162.542 210.548V210.548C161.509 210.548 160.673 209.711 160.673 208.679V208.679C160.673 207.646 159.836 206.809 158.803 206.809H151.327C150.294 206.809 149.458 207.646 149.458 208.679V208.679C149.458 209.711 148.621 210.548 147.588 210.548V210.548C146.556 210.548 145.719 211.385 145.719 212.417V219.894C145.719 220.927 144.882 221.763 143.85 221.763V221.763C142.818 221.763 141.981 222.6 141.981 223.633V231.11C141.981 232.142 141.144 232.979 140.112 232.979V232.979C139.079 232.979 138.243 233.816 138.243 234.848V244.194V246.064V246.064C138.243 247.096 137.406 247.933 136.373 247.933H132.635C131.603 247.933 130.766 248.77 130.766 249.802V249.802C130.766 250.835 129.929 251.671 128.897 251.671V251.671C127.865 251.671 127.028 252.508 127.028 253.541V257.279C127.028 258.312 127.865 259.148 128.897 259.148V259.148C129.929 259.148 130.766 259.985 130.766 261.018V264.756C130.766 265.789 129.929 266.625 128.897 266.625V266.625C127.865 266.625 127.028 267.462 127.028 268.495V275.972C127.028 277.004 126.191 277.841 125.159 277.841V277.841C124.126 277.841 123.289 278.678 123.289 279.71V290.926C123.289 291.958 122.452 292.795 121.42 292.795V292.795C120.388 292.795 119.551 293.632 119.551 294.664V305.88C119.551 306.912 120.388 307.749 121.42 307.749V307.749C122.452 307.749 123.289 308.586 123.289 309.618V309.618C123.289 310.65 124.126 311.487 125.159 311.487H128.897C129.929 311.487 130.766 310.65 130.766 309.618V309.618C130.766 308.586 131.603 307.749 132.635 307.749V307.749C133.667 307.749 134.504 306.912 134.504 305.88V304.01V302.141C134.504 301.109 135.341 300.272 136.373 300.272V300.272C137.406 300.272 138.243 299.435 138.243 298.403V290.926C138.243 289.893 139.079 289.056 140.112 289.056V289.056C141.144 289.056 141.981 288.22 141.981 287.187V275.972C141.981 274.939 142.818 274.102 143.85 274.102V274.102C144.882 274.102 145.719 273.266 145.719 272.233V264.756C145.719 263.724 146.556 262.887 147.588 262.887V262.887C148.621 262.887 149.458 262.05 149.458 261.018V261.018C149.458 259.985 150.294 259.148 151.327 259.148V259.148C152.359 259.148 153.196 258.312 153.196 257.279V257.279C153.196 256.247 154.033 255.41 155.065 255.41H156.934C158.999 255.41 160.673 257.084 160.673 259.148V259.148V261.018C160.673 262.05 159.836 262.887 158.803 262.887V262.887C157.771 262.887 156.934 263.724 156.934 264.756V266.625V274.102V275.972C156.934 277.004 156.097 277.841 155.065 277.841V277.841C154.033 277.841 153.196 278.678 153.196 279.71V283.449C153.196 284.481 152.359 285.318 151.327 285.318V285.318C150.294 285.318 149.458 286.155 149.458 287.187V294.664C149.458 295.697 150.294 296.533 151.327 296.533V296.533C152.359 296.533 153.196 297.37 153.196 298.403V298.403C153.196 299.435 154.033 300.272 155.065 300.272H158.803C159.836 300.272 160.673 299.435 160.673 298.403V298.403C160.673 297.37 161.509 296.533 162.542 296.533V296.533C163.574 296.533 164.411 295.696 164.411 294.664V294.664C164.411 293.632 165.248 292.795 166.28 292.795V292.795C167.312 292.795 168.149 291.958 168.149 290.926V283.449C168.149 282.416 168.986 281.579 170.018 281.579V281.579C171.051 281.579 171.887 280.743 171.887 279.71V268.495C171.887 267.462 172.724 266.625 173.757 266.625V266.625C174.789 266.625 175.626 265.789 175.626 264.756V253.541C175.626 252.508 176.463 251.671 177.495 251.671V251.671C178.527 251.671 179.364 250.835 179.364 249.802V238.587C179.364 237.554 180.201 236.717 181.233 236.717V236.717C182.266 236.717 183.102 235.881 183.102 234.848V227.371C183.102 226.339 183.939 225.502 184.972 225.502V225.502C186.004 225.502 186.841 224.665 186.841 223.633V212.417C186.841 211.385 187.678 210.548 188.71 210.548V210.548C189.742 210.548 190.579 209.711 190.579 208.679V197.463Z"
    fill="url(#paint2_linear)"/>
  <path
    d="M132.636 214.286C131.603 214.286 130.766 213.449 130.766 212.417V212.417C130.766 211.385 129.929 210.548 128.897 210.548V210.548C127.865 210.548 127.028 209.711 127.028 208.679V208.679C127.028 207.646 126.191 206.809 125.159 206.809H121.421C120.388 206.809 119.551 207.646 119.551 208.679V208.679C119.551 209.711 118.715 210.548 117.682 210.548V210.548C116.65 210.548 115.813 211.385 115.813 212.417V223.633C115.813 224.665 114.976 225.502 113.944 225.502V225.502C112.912 225.502 112.075 226.339 112.075 227.371V234.848C112.075 235.88 111.238 236.717 110.206 236.717V236.717C109.173 236.717 108.336 237.554 108.336 238.586V246.064C108.336 247.096 107.5 247.933 106.467 247.933V247.933C105.435 247.933 104.598 247.096 104.598 246.064V232.979C104.598 230.914 102.924 229.24 100.86 229.24V229.24V229.24C98.7952 229.24 97.1215 230.914 97.1215 232.979V238.587C97.1215 239.619 96.2846 240.456 95.2523 240.456V240.456C94.22 240.456 93.3832 241.293 93.3832 242.325V249.802C93.3832 250.834 92.5463 251.671 91.514 251.671V251.671C90.4817 251.671 89.6449 250.834 89.6449 249.802V234.848C89.6449 233.816 90.4817 232.979 91.514 232.979V232.979C92.5463 232.979 93.3832 232.142 93.3832 231.11V216.155C93.3832 215.123 94.22 214.286 95.2523 214.286V214.286C96.2846 214.286 97.1215 213.449 97.1215 212.417V201.201C97.1215 200.169 96.2846 199.332 95.2523 199.332V199.332C94.22 199.332 93.3832 198.495 93.3832 197.463V197.463C93.3832 196.431 92.5463 195.594 91.5139 195.594H84.0375C83.0051 195.594 82.1682 196.431 82.1682 197.463V197.463C82.1682 198.495 81.3314 199.332 80.2991 199.332V199.332C79.2668 199.332 78.4299 200.169 78.4299 201.201V208.679C78.4299 209.711 77.5931 210.548 76.5607 210.548V210.548C75.5284 210.548 74.6916 211.385 74.6916 212.417V219.894V225.502V227.371C74.6916 228.403 73.8547 229.24 72.8224 229.24V229.24C71.7901 229.24 70.9533 230.077 70.9533 231.109V246.064V246.064C70.9533 247.096 70.1164 247.933 69.0841 247.933V247.933C68.0518 247.933 67.215 248.77 67.215 249.802V272.233C67.215 273.265 66.3781 274.102 65.3458 274.102V274.102C64.3135 274.102 63.4766 274.939 63.4766 275.971V298.403C63.4766 299.435 62.6398 300.272 61.6075 300.272V300.272C60.5752 300.272 59.7383 301.109 59.7383 302.141V317.095C59.7383 318.127 58.9015 318.964 57.8692 318.964V318.964C56.8369 318.964 56 319.801 56 320.833V335.788C56 336.82 56.8369 337.657 57.8692 337.657V337.657C58.9015 337.657 59.7383 338.494 59.7383 339.526V341.395V341.395C59.7383 343.46 61.412 345.134 63.4766 345.134H65.3457C66.3781 345.134 67.215 344.297 67.215 343.264V343.264C67.215 342.232 68.0518 341.395 69.0841 341.395V341.395C70.1164 341.395 70.9533 340.558 70.9533 339.526V335.787C70.9533 334.755 71.7901 333.918 72.8224 333.918V333.918C73.8547 333.918 74.6916 333.081 74.6916 332.049V328.31C74.6916 327.278 75.5284 326.441 76.5607 326.441V326.441C77.5931 326.441 78.4299 325.604 78.4299 324.572V309.618C78.4299 308.586 79.2668 307.749 80.2991 307.749V307.749C81.3314 307.749 82.1682 306.912 82.1682 305.88V298.402C82.1682 297.37 83.0051 296.533 84.0374 296.533V296.533C85.0697 296.533 85.9065 295.696 85.9065 294.664V283.448C85.9065 282.416 86.7434 281.579 87.7757 281.579V281.579C88.808 281.579 89.6449 280.742 89.6449 279.71V279.71C89.6449 278.678 90.4817 277.841 91.514 277.841V277.841C92.5463 277.841 93.3832 278.678 93.3832 279.71V287.187C93.3832 288.219 92.5463 289.056 91.514 289.056V289.056C90.4817 289.056 89.6449 289.893 89.6449 290.925V300.272V302.141V309.618C89.6449 310.65 90.4817 311.487 91.514 311.487V311.487C92.5463 311.487 93.3832 312.324 93.3832 313.356V317.095C93.3832 318.127 94.22 318.964 95.2523 318.964V318.964C96.2846 318.964 97.1215 319.801 97.1215 320.833V320.833C97.1215 321.866 97.9583 322.703 98.9906 322.703V322.703C100.023 322.703 100.86 321.866 100.86 320.833V320.833C100.86 319.801 101.697 318.964 102.729 318.964V318.964C103.761 318.964 104.598 318.127 104.598 317.095V313.356C104.598 312.324 105.435 311.487 106.467 311.487V311.487C107.5 311.487 108.336 310.65 108.336 309.618V298.402C108.336 297.37 109.173 296.533 110.206 296.533V296.533C111.238 296.533 112.075 295.696 112.075 294.664V287.187C112.075 286.155 112.912 285.318 113.944 285.318V285.318C114.976 285.318 115.813 284.481 115.813 283.449V275.971C115.813 274.939 116.65 274.102 117.682 274.102V274.102C118.715 274.102 119.551 273.265 119.551 272.233V261.017C119.551 259.985 120.388 259.148 121.421 259.148V259.148C122.453 259.148 123.29 258.311 123.29 257.279V249.802C123.29 248.77 124.127 247.933 125.159 247.933V247.933C126.191 247.933 127.028 247.096 127.028 246.064V234.848C127.028 233.816 127.865 232.979 128.897 232.979V232.979C129.929 232.979 130.766 232.142 130.766 231.11V223.632C130.766 222.6 131.603 221.763 132.636 221.763V221.763C133.668 221.763 134.505 220.926 134.505 219.894V216.155C134.505 215.123 133.668 214.286 132.636 214.286V214.286Z"
    fill="url(#paint3_linear)"/>
  <path
    d="M304.599 143.255C303.566 143.255 302.729 144.092 302.729 145.124V145.124C302.729 146.157 301.892 146.994 300.86 146.994H298.991H293.384C292.351 146.994 291.514 147.83 291.514 148.863V148.863C291.514 149.895 290.678 150.732 289.645 150.732H284.038H282.169C281.136 150.732 280.299 151.569 280.299 152.601V152.601C280.299 153.634 279.463 154.47 278.43 154.47H274.692C273.66 154.47 272.823 155.307 272.823 156.34V156.34C272.823 157.372 271.986 158.209 270.954 158.209H267.215C266.183 158.209 265.346 159.046 265.346 160.078V160.078C265.346 161.111 264.509 161.947 263.477 161.947V161.947C262.445 161.947 261.608 162.784 261.608 163.817V163.817C261.608 164.849 262.445 165.686 263.477 165.686H270.954C271.986 165.686 272.823 164.849 272.823 163.817V163.817C272.823 162.784 273.66 161.947 274.692 161.947H276.561C278.626 161.947 280.299 163.621 280.299 165.686V171.294C280.299 172.326 279.463 173.163 278.43 173.163V173.163C277.398 173.163 276.561 174 276.561 175.032V189.986C276.561 191.019 275.724 191.855 274.692 191.855V191.855C273.66 191.855 272.823 192.692 272.823 193.725V208.679C272.823 209.711 271.986 210.548 270.954 210.548V210.548C269.921 210.548 269.085 211.385 269.085 212.417V223.633C269.085 224.665 268.248 225.502 267.215 225.502V225.502C266.183 225.502 265.346 226.339 265.346 227.371V238.587C265.346 239.619 264.509 240.456 263.477 240.456V240.456C262.445 240.456 261.608 241.293 261.608 242.325V253.541C261.608 254.573 260.771 255.41 259.739 255.41V255.41C258.706 255.41 257.87 256.247 257.87 257.279V259.148V261.018C257.87 262.05 257.033 262.887 256 262.887V262.887C254.968 262.887 254.131 263.724 254.131 264.756V264.756C254.131 265.788 253.294 266.625 252.262 266.625H248.524C247.492 266.625 246.655 267.462 246.655 268.495V268.495C246.655 269.527 245.818 270.364 244.785 270.364H241.047C240.015 270.364 239.178 271.201 239.178 272.233V272.233C239.178 273.266 240.015 274.102 241.047 274.102V274.102C242.079 274.102 242.916 274.939 242.916 275.972V275.972C242.916 277.004 243.753 277.841 244.786 277.841H252.262C253.294 277.841 254.131 277.004 254.131 275.972V275.972C254.131 274.939 254.968 274.102 256 274.102H259.739C260.771 274.102 261.608 273.266 261.608 272.233V272.233C261.608 271.201 262.445 270.364 263.477 270.364H265.346H272.823H274.692C275.724 270.364 276.561 269.527 276.561 268.495V268.495C276.561 267.462 277.398 266.625 278.43 266.625H282.169C283.201 266.625 284.038 265.789 284.038 264.756V264.756C284.038 263.724 284.875 262.887 285.907 262.887H293.384C294.416 262.887 295.253 262.05 295.253 261.018V261.018C295.253 259.985 296.09 259.148 297.122 259.148V259.148C298.154 259.148 298.991 258.311 298.991 257.279V257.279C298.991 256.247 298.154 255.41 297.122 255.41V255.41C296.09 255.41 295.253 254.573 295.253 253.541V253.541C295.253 252.508 294.416 251.671 293.383 251.671H289.645C288.613 251.671 287.776 252.508 287.776 253.541V253.541C287.776 254.573 286.939 255.41 285.907 255.41H282.169C281.136 255.41 280.299 256.247 280.299 257.279V257.279C280.299 258.312 279.463 259.148 278.43 259.148V259.148C277.398 259.148 276.561 258.312 276.561 257.279V249.802C276.561 248.77 277.398 247.933 278.43 247.933V247.933C279.463 247.933 280.299 247.096 280.299 246.064V234.848C280.299 233.816 281.136 232.979 282.169 232.979V232.979C283.201 232.979 284.038 232.142 284.038 231.11V219.894C284.038 218.862 284.875 218.025 285.907 218.025V218.025C286.939 218.025 287.776 217.188 287.776 216.156V201.202C287.776 200.169 288.613 199.332 289.645 199.332V199.332C290.678 199.332 291.514 198.496 291.514 197.463V186.248C291.514 185.215 292.351 184.378 293.384 184.378V184.378C294.416 184.378 295.253 183.542 295.253 182.509V167.555C295.253 166.523 296.09 165.686 297.122 165.686V165.686C298.154 165.686 298.991 164.849 298.991 163.817V158.209V158.209C298.991 156.144 300.665 154.47 302.729 154.47H304.598C305.631 154.47 306.468 153.634 306.468 152.601V152.601C306.468 151.569 307.305 150.732 308.337 150.732H312.075C313.107 150.732 313.944 149.895 313.944 148.863V148.863C313.944 147.83 314.781 146.994 315.813 146.994V146.994C316.846 146.994 317.683 146.157 317.683 145.124V145.124C317.683 144.092 316.846 143.255 315.813 143.255H304.599Z"
    fill="url(#paint4_linear)"/>
  <path
    d="M356.935 154.47C355.903 154.47 355.066 153.634 355.066 152.601V152.601C355.066 151.569 354.229 150.732 353.197 150.732V150.732C352.164 150.732 351.328 149.895 351.328 148.863V148.863C351.328 147.83 350.491 146.994 349.458 146.994H345.72C344.688 146.994 343.851 146.157 343.851 145.124V145.124C343.851 144.092 343.014 143.255 341.982 143.255H330.767C329.735 143.255 328.898 144.092 328.898 145.124V145.124C328.898 146.157 328.061 146.994 327.028 146.994H323.29C322.258 146.994 321.421 147.83 321.421 148.863V148.863C321.421 149.895 320.584 150.732 319.552 150.732V150.732C318.52 150.732 317.683 151.569 317.683 152.601V152.601C317.683 153.634 316.846 154.47 315.814 154.47V154.47C314.781 154.47 313.944 155.307 313.944 156.34V156.34C313.944 157.372 313.108 158.209 312.075 158.209V158.209C311.043 158.209 310.206 159.046 310.206 160.078V160.078C310.206 161.111 309.369 161.947 308.337 161.947V161.947C307.305 161.947 306.468 162.784 306.468 163.817V163.817V167.555C306.468 168.588 305.631 169.424 304.599 169.424V169.424C303.566 169.424 302.73 170.261 302.73 171.294V186.248C302.73 187.28 303.566 188.117 304.599 188.117H305.533C306.049 188.117 306.468 188.535 306.468 189.052V189.052C306.468 189.568 306.886 189.986 307.402 189.986H308.337C309.369 189.986 310.206 190.823 310.206 191.855V193.725C310.206 194.757 311.043 195.594 312.075 195.594V195.594C313.108 195.594 313.944 196.431 313.944 197.463V197.463C313.944 198.496 314.781 199.332 315.814 199.332V199.332C316.846 199.332 317.683 200.169 317.683 201.202V201.202C317.683 202.234 318.52 203.071 319.552 203.071H321.421C322.453 203.071 323.29 203.908 323.29 204.94V205.875C323.29 206.391 323.709 206.809 324.225 206.809V206.809C324.741 206.809 325.159 207.228 325.159 207.744V208.679C325.159 209.711 325.996 210.548 327.029 210.548V210.548C328.061 210.548 328.898 211.385 328.898 212.417V212.417C328.898 213.449 328.061 214.286 327.029 214.286V214.286C325.996 214.286 325.159 215.123 325.159 216.156V216.156C325.159 217.188 324.323 218.025 323.29 218.025V218.025C322.258 218.025 321.421 218.862 321.421 219.894V219.894C321.421 220.926 320.584 221.763 319.552 221.763V221.763C318.52 221.763 317.683 222.6 317.683 223.633V223.633C317.683 224.665 316.846 225.502 315.814 225.502H312.075C311.043 225.502 310.206 226.339 310.206 227.371V227.371C310.206 228.404 309.369 229.24 308.337 229.24H304.599C303.566 229.24 302.73 230.077 302.73 231.11V231.11C302.73 232.142 301.893 232.979 300.86 232.979V232.979C299.828 232.979 298.991 233.816 298.991 234.848V234.848C298.991 235.88 298.154 236.717 297.122 236.717H293.384C292.351 236.717 291.515 237.554 291.515 238.587V238.587C291.515 239.619 290.678 240.456 289.645 240.456V240.456C288.613 240.456 287.776 241.293 287.776 242.325V242.325C287.776 243.357 288.613 244.194 289.645 244.194V244.194C290.678 244.194 291.515 245.031 291.515 246.064V246.064C291.515 247.096 292.351 247.933 293.384 247.933H304.599C305.631 247.933 306.468 247.096 306.468 246.064V246.064C306.468 245.031 307.305 244.194 308.337 244.194H310.206H312.075C313.108 244.194 313.944 243.357 313.944 242.325V242.325C313.944 241.293 314.781 240.456 315.814 240.456V240.456C316.846 240.456 317.683 239.619 317.683 238.587V238.587C317.683 237.554 318.52 236.717 319.552 236.717H323.29C324.323 236.717 325.159 235.88 325.159 234.848V234.848C325.159 233.816 325.996 232.979 327.029 232.979V232.979C328.061 232.979 328.898 232.142 328.898 231.11V231.11C328.898 230.077 329.735 229.24 330.767 229.24H332.636H334.505C335.537 229.24 336.374 228.403 336.374 227.371V227.371C336.374 226.339 337.211 225.502 338.244 225.502V225.502C339.276 225.502 340.113 224.665 340.113 223.633V221.763V219.894C340.113 218.862 340.95 218.025 341.982 218.025V218.025C343.014 218.025 343.851 217.188 343.851 216.156V204.94C343.851 203.908 343.014 203.071 341.982 203.071V203.071C340.95 203.071 340.113 202.234 340.113 201.202V201.202C340.113 200.169 339.276 199.332 338.244 199.332V199.332C337.211 199.332 336.374 198.496 336.374 197.463V197.463C336.374 196.431 335.538 195.594 334.505 195.594V195.594C333.473 195.594 332.636 194.757 332.636 193.725V193.725C332.636 192.692 331.799 191.855 330.767 191.855V191.855C329.735 191.855 328.898 191.019 328.898 189.986V189.986C328.898 188.954 328.061 188.117 327.029 188.117V188.117C325.996 188.117 325.159 187.28 325.159 186.248V186.248C325.159 185.215 324.323 184.378 323.29 184.378V184.378C322.258 184.378 321.421 183.542 321.421 182.509V182.509C321.421 181.477 320.584 180.64 319.552 180.64V180.64C318.52 180.64 317.683 179.803 317.683 178.771V178.771C317.683 177.738 318.52 176.901 319.552 176.901V176.901C320.584 176.901 321.421 176.065 321.421 175.032V171.294C321.421 170.261 322.258 169.424 323.29 169.424V169.424C324.323 169.424 325.159 168.588 325.159 167.555V167.555C325.159 166.523 325.996 165.686 327.029 165.686V165.686C328.061 165.686 328.898 164.849 328.898 163.817V163.817C328.898 162.784 329.735 161.947 330.767 161.947V161.947C331.799 161.947 332.636 161.111 332.636 160.078V160.078C332.636 159.046 333.473 158.209 334.505 158.209H341.982C343.014 158.209 343.851 159.046 343.851 160.078V160.078C343.851 161.111 344.688 161.947 345.72 161.947H353.197C354.229 161.947 355.066 161.111 355.066 160.078V160.078C355.066 159.046 355.903 158.209 356.935 158.209V158.209C357.967 158.209 358.804 157.372 358.804 156.34V156.34C358.804 155.307 357.967 154.47 356.935 154.47V154.47Z"
    fill="url(#paint5_linear)"/>
  <g clip-path="url(#clip0)">
    <path
      d="M429.851 290.926V287.187H418.636V283.449H411.159V279.71H407.42V275.972H414.897V272.233H411.159V268.495H403.682V264.756H381.251V268.495H362.558V272.233H340.127V275.972H321.435V279.71H310.219H306.481V283.449H291.527V287.187H276.573V290.926H261.618V294.664H246.664V298.403H231.71V302.141H216.756V305.88H205.541V309.618H190.587V313.357H179.371V317.095H168.156V320.834H156.94V324.572H145.725V328.311H134.509V332.049H123.294V335.788H115.817V339.526H104.601V343.265H93.3859V347.003H89.6474V350.742H85.9089V354.48H89.6474V358.219H93.3859V361.957H82.1704V365.696V369.434H89.6474V373.173H85.9089V376.911H82.1704V380.65H85.9089V384.388H82.1704V388.127H85.9089V391.865H89.6474V395.604H82.1704V399.342H97.1244V395.604H104.601V391.865H115.817V388.127H127.032V384.388H138.248V380.65H141.986H149.463V376.911H160.679V373.173H171.894V369.434H183.11V365.696H190.587H198.064V361.957H209.279V358.219H220.495V354.48H235.449V350.742H246.664V347.003H261.618V343.265H272.834V339.526H287.788V335.788H302.742V332.049H317.696V328.311H332.65V324.572H347.604V320.834H362.558V317.095H377.512V313.357H396.205V309.618H407.42H411.159V305.88H418.636V302.141H426.113V298.403H429.851V294.664H426.113V290.926H429.851Z"
      fill="#FFD951"/>
    <path d="M131.588 352.992L129.463 357.455L140.728 353.417L133.501 367.233L152.419 360.431L159.221 346.615L170.061 342.576L171.974 338.325L131.588 352.992Z" fill="#060968"/>
    <path
      d="M205.133 327.272C205.133 327.272 198.757 338.325 197.694 340.025C196.631 341.938 195.143 343.639 191.955 344.276C188.766 345.127 188.766 343.851 188.979 343.001C189.192 342.151 196.419 330.035 196.419 330.035L177.713 336.199C177.713 336.199 171.974 347.252 171.124 349.165C170.274 351.291 172.824 353.204 189.829 347.677C206.834 342.363 215.124 335.561 216.186 333.436C217.249 331.31 222.776 321.533 222.776 321.533L205.133 327.272Z"
      fill="#060968"/>
    <path
      d="M261.036 318.557C268.476 314.731 269.964 313.881 271.026 311.968C272.089 310.055 272.727 307.504 263.587 310.055C254.659 312.605 230.003 319.407 230.003 319.407L219.375 337.687L237.017 332.798L241.693 324.721C241.693 324.721 246.795 323.233 247.645 323.233C248.495 323.233 248.495 324.721 248.07 325.571C247.645 326.422 245.732 329.61 245.732 329.61L264.012 324.721C264.012 324.721 265.5 321.108 266.35 319.832C266.988 318.77 266.563 317.069 261.036 318.557ZM253.384 316.857C252.746 320.045 247.858 320.895 245.945 321.32C244.032 321.745 244.244 320.683 244.457 319.832C244.457 319.832 245.945 317.282 246.37 317.069C247.007 317.069 253.809 314.306 253.384 316.857Z"
      fill="#060968"/>
    <path
      d="M320.128 297.726C320.765 296.45 320.765 295.388 314.389 296.876C308.224 298.363 280.379 305.59 280.379 305.59L270.176 323.87C270.176 323.87 293.558 317.069 299.297 315.581C304.823 313.88 311.625 311.117 313.751 308.991C316.089 307.078 317.789 303.677 312.901 304.74C308.224 305.803 306.949 306.016 307.162 305.378C307.374 304.953 316.727 303.89 320.128 297.726ZM295.046 314.093C293.133 314.73 288.669 315.581 288.669 315.581L291.645 310.692C291.645 310.692 298.447 308.566 298.872 309.417C299.509 310.054 296.959 313.455 295.046 314.093ZM299.297 307.078C297.596 307.503 293.77 308.354 293.77 308.354L296.108 304.103C296.108 304.103 301.848 301.764 302.485 303.04C302.91 303.89 300.997 306.653 299.297 307.078Z"
      fill="#060968"/>
    <path
      d="M362.427 286.248C356.688 287.523 346.06 289.649 342.659 290.499C339.258 291.349 329.48 294.113 325.016 299.001C323.316 300.914 321.615 303.678 321.615 303.678C320.128 306.441 317.364 311.117 326.717 309.204C335.857 307.504 341.383 306.441 347.548 304.741C353.712 303.04 360.301 300.489 363.277 296.451C366.253 292.412 366.465 292.412 367.741 290.074C368.804 287.948 368.166 284.973 362.427 286.248ZM349.036 296.026C347.335 298.576 344.572 302.402 343.934 302.615C343.296 303.04 342.234 303.465 340.108 303.678C337.983 304.103 335.857 304.315 336.495 303.253C337.132 302.19 342.021 294.538 342.659 293.687C343.296 292.837 343.722 292.625 344.359 292.412C345.422 291.987 350.736 290.924 350.949 291.349C351.374 291.987 350.736 293.475 349.036 296.026Z"
      fill="#060968"/>
  </g>
  <defs>
    <linearGradient id="paint0_linear" x1="405.533" y1="104" x2="405.533" y2="249.801" gradientUnits="userSpaceOnUse">
      <stop stop-color="#EF2F00"/>
      <stop offset="1" stop-color="#FFD951"/>
    </linearGradient>
    <linearGradient id="paint1_linear" x1="214.878" y1="180.64" x2="214.878" y2="281.579" gradientUnits="userSpaceOnUse">
      <stop stop-color="#EF2F00"/>
      <stop offset="1" stop-color="#FFD951"/>
    </linearGradient>
    <linearGradient id="paint2_linear" x1="155.065" y1="191.855" x2="155.065" y2="311.487" gradientUnits="userSpaceOnUse">
      <stop stop-color="#EF2F00"/>
      <stop offset="1" stop-color="#FFD951"/>
    </linearGradient>
    <linearGradient id="paint3_linear" x1="95.2523" y1="195.594" x2="95.2523" y2="345.134" gradientUnits="userSpaceOnUse">
      <stop stop-color="#EF2F00"/>
      <stop offset="1" stop-color="#FFD951"/>
    </linearGradient>
    <linearGradient id="paint4_linear" x1="278.43" y1="143.255" x2="278.43" y2="277.841" gradientUnits="userSpaceOnUse">
      <stop stop-color="#EF2F00"/>
      <stop offset="1" stop-color="#FFD951"/>
    </linearGradient>
    <linearGradient id="paint5_linear" x1="323.29" y1="143.255" x2="323.29" y2="247.933" gradientUnits="userSpaceOnUse">
      <stop stop-color="#EF2F00"/>
      <stop offset="1" stop-color="#FFD951"/>
    </linearGradient>
    <clipPath id="clip0">
      <rect x="82.1704" y="264.756" width="347.681" height="134.586" rx="67.293" fill="white"/>
    </clipPath>
  </defs>
</svg>
