<svg width="512" height="512" fill="none" xmlns="http://www.w3.org/2000/svg">
  <rect width="512" height="512" rx="90" fill="#1F23A0"/>
  <path
    d="M456 109.608a1.87 1.87 0 00-1.869-1.87 1.868 1.868 0 01-1.869-1.869 1.87 1.87 0 00-1.87-1.869h-7.476a1.87 1.87 0 00-1.869 1.869 1.869 1.869 0 01-1.87 1.869h-7.476a1.869 1.869 0 01-1.869-1.869 1.87 1.87 0 00-1.869-1.869h-3.739a1.87 1.87 0 00-1.869 1.869 1.869 1.869 0 01-1.869 1.869 1.87 1.87 0 00-1.869 1.87v1.869a3.738 3.738 0 01-3.739 3.738h-1.869a1.87 1.87 0 00-1.869 1.87 1.87 1.87 0 01-1.869 1.869h-3.738a1.869 1.869 0 01-1.869-1.869 1.87 1.87 0 00-1.87-1.87h-3.738a1.87 1.87 0 00-1.869 1.87 1.87 1.87 0 01-1.869 1.869 1.869 1.869 0 00-1.869 1.869 1.869 1.869 0 01-1.87 1.869 1.87 1.87 0 00-1.869 1.87 1.87 1.87 0 01-1.869 1.869h-3.738a1.87 1.87 0 00-1.869 1.869 1.869 1.869 0 01-1.87 1.869h-3.738a1.87 1.87 0 00-1.869 1.87 1.87 1.87 0 01-1.869 1.869h-3.738a1.869 1.869 0 100 3.738h14.953a1.869 1.869 0 001.869-1.869 1.87 1.87 0 013.738 0v14.954a1.869 1.869 0 01-1.869 1.869 1.87 1.87 0 00-1.869 1.87v18.692a1.869 1.869 0 01-1.869 1.869 1.869 1.869 0 00-1.869 1.87v14.954a1.87 1.87 0 01-1.87 1.869 1.87 1.87 0 00-1.869 1.869v18.693a1.87 1.87 0 01-1.869 1.869 1.87 1.87 0 00-1.869 1.869V229.24a1.87 1.87 0 01-1.869 1.869 1.87 1.87 0 00-1.869 1.869 1.87 1.87 0 01-1.87 1.869h-3.738a1.87 1.87 0 00-1.869 1.87 1.87 1.87 0 01-1.869 1.869h-3.738a1.869 1.869 0 100 3.738h11.214a1.87 1.87 0 011.87 1.87 1.87 1.87 0 001.869 1.869 1.87 1.87 0 011.869 1.869 1.87 1.87 0 001.869 1.869h3.738a1.87 1.87 0 001.87-1.869c0-1.032.836-1.869 1.869-1.869a1.87 1.87 0 001.869-1.869 1.87 1.87 0 011.869-1.87 1.87 1.87 0 001.869-1.869 1.87 1.87 0 011.869-1.869 1.87 1.87 0 001.87-1.869 1.87 1.87 0 113.738 0 1.87 1.87 0 001.869 1.869 1.87 1.87 0 011.869 1.869 1.87 1.87 0 001.869 1.869h3.739a1.87 1.87 0 001.869-1.869 1.87 1.87 0 011.869-1.869 1.87 1.87 0 001.869-1.869v-3.739a1.87 1.87 0 011.869-1.869 1.869 1.869 0 001.869-1.869 1.87 1.87 0 011.87-1.87h3.738a1.869 1.869 0 001.869-1.869 1.87 1.87 0 011.869-1.869H431.701a1.87 1.87 0 000-3.739 1.869 1.869 0 01-1.869-1.869 1.87 1.87 0 00-1.869-1.869h-7.477a1.87 1.87 0 00-1.869 1.869 1.869 1.869 0 11-3.739 0v-3.738a1.87 1.87 0 011.87-1.87 1.869 1.869 0 001.869-1.869v-14.954a1.87 1.87 0 011.869-1.869 1.87 1.87 0 001.869-1.869v-14.954a1.87 1.87 0 011.869-1.87 1.868 1.868 0 001.869-1.869v-11.215a1.87 1.87 0 011.87-1.87 1.869 1.869 0 001.869-1.869v-18.692a1.87 1.87 0 011.869-1.87 1.869 1.869 0 001.869-1.869v-14.954a1.87 1.87 0 011.869-1.869 1.869 1.869 0 001.869-1.869 1.87 1.87 0 011.87-1.87h3.738a1.869 1.869 0 001.869-1.869 1.87 1.87 0 011.869-1.869h7.477a1.87 1.87 0 001.869-1.869zm-41.122 37.385a1.869 1.869 0 01-1.869 1.869 1.87 1.87 0 00-1.869 1.869v14.954a1.869 1.869 0 01-1.869 1.869 1.87 1.87 0 00-1.869 1.87v18.692a1.869 1.869 0 01-1.869 1.869 1.869 1.869 0 00-1.869 1.87v14.954a1.87 1.87 0 01-1.87 1.869 1.87 1.87 0 00-1.869 1.869v9.347a3.738 3.738 0 11-7.476 0V203.07c0-1.032.836-1.869 1.869-1.869a1.87 1.87 0 001.869-1.869v-14.954a1.87 1.87 0 011.869-1.87 1.869 1.869 0 001.869-1.869v-18.692a1.87 1.87 0 011.869-1.87c1.033 0 1.87-.836 1.87-1.869v-14.954c0-1.032.836-1.869 1.869-1.869a1.87 1.87 0 001.869-1.869v-5.608a3.738 3.738 0 117.476 0V146.993z"
    fill="url(#paint0_linear)"/>
  <path
    d="M241.046 195.594a1.87 1.87 0 01-1.869-1.869v-3.739a1.87 1.87 0 00-1.869-1.869 1.87 1.87 0 01-1.869-1.869 1.87 1.87 0 00-1.869-1.87 1.87 1.87 0 01-1.869-1.869 1.87 1.87 0 00-1.87-1.869h-11.214a1.87 1.87 0 00-1.87 1.869 1.87 1.87 0 01-1.869 1.869h-3.738a1.87 1.87 0 00-1.869 1.87 1.87 1.87 0 01-1.869 1.869 1.87 1.87 0 00-1.87 1.869 1.869 1.869 0 01-1.869 1.869 1.87 1.87 0 00-1.869 1.869v3.739a1.87 1.87 0 01-1.869 1.869 1.87 1.87 0 00-1.869 1.869v7.478a1.87 1.87 0 01-1.869 1.869 1.87 1.87 0 00-1.87 1.869v11.216a1.869 1.869 0 01-1.869 1.869 1.87 1.87 0 00-1.869 1.869v14.954a1.87 1.87 0 01-1.869 1.869 1.87 1.87 0 00-1.869 1.869v22.432a1.87 1.87 0 001.869 1.869 1.87 1.87 0 011.869 1.869v3.739a1.87 1.87 0 001.869 1.869c1.033 0 1.869.837 1.869 1.869a1.87 1.87 0 001.87 1.869h11.214a1.87 1.87 0 001.87-1.869 1.87 1.87 0 011.869-1.869h3.738a1.87 1.87 0 001.869-1.87 1.87 1.87 0 011.87-1.869h3.738a1.87 1.87 0 001.869-1.869 1.87 1.87 0 011.869-1.869 1.87 1.87 0 001.869-1.869v-3.739a1.87 1.87 0 011.869-1.869 1.87 1.87 0 001.87-1.869v-7.478a1.87 1.87 0 011.869-1.869 1.87 1.87 0 001.869-1.869v-11.216a1.87 1.87 0 011.869-1.869 1.87 1.87 0 001.869-1.869v-14.954a1.87 1.87 0 011.869-1.869 1.87 1.87 0 001.87-1.869V197.463a1.87 1.87 0 00-1.87-1.869zm-13.084 16.823a1.87 1.87 0 01-1.869 1.869 1.87 1.87 0 00-1.869 1.869v14.955a1.87 1.87 0 01-1.869 1.869 1.87 1.87 0 00-1.869 1.869v7.477a1.87 1.87 0 01-1.869 1.869 1.87 1.87 0 00-1.87 1.869v7.478a1.869 1.869 0 01-1.869 1.869 1.87 1.87 0 00-1.869 1.869v5.608a3.739 3.739 0 01-3.738 3.738h-1.869a1.87 1.87 0 01-1.87-1.869 1.869 1.869 0 00-1.869-1.869 1.87 1.87 0 01-1.869-1.869v-11.216a1.87 1.87 0 011.869-1.869 1.869 1.869 0 001.869-1.869v-14.955a1.87 1.87 0 011.87-1.869 1.87 1.87 0 001.869-1.869v-7.477a1.87 1.87 0 011.869-1.869 1.87 1.87 0 001.869-1.869v-7.478a1.87 1.87 0 011.869-1.869 1.869 1.869 0 001.869-1.869v-5.608a3.738 3.738 0 117.477 0v1.87a1.87 1.87 0 001.869 1.869 1.87 1.87 0 011.869 1.869V212.417z"
    fill="url(#paint1_linear)"/>
  <path
    d="M190.579 197.463a1.87 1.87 0 00-1.869-1.869 1.87 1.87 0 01-1.869-1.869 1.87 1.87 0 00-1.87-1.87h-3.738a1.87 1.87 0 00-1.869 1.87 1.87 1.87 0 01-1.869 1.869 1.87 1.87 0 00-1.869 1.869v7.477a1.869 1.869 0 01-1.869 1.869 1.87 1.87 0 00-1.87 1.87v11.215a1.868 1.868 0 01-1.869 1.869 1.87 1.87 0 00-1.869 1.87v7.477a1.87 1.87 0 01-1.869 1.869 1.87 1.87 0 00-1.869 1.869v3.739a1.87 1.87 0 01-1.869 1.869 1.869 1.869 0 00-1.869 1.869 1.869 1.869 0 01-1.87 1.869h-1.869a3.738 3.738 0 01-3.738-3.738v-1.869a1.87 1.87 0 011.869-1.87 1.869 1.869 0 001.869-1.869v-7.477a1.87 1.87 0 011.869-1.869 1.87 1.87 0 001.87-1.869v-3.739c0-1.032.836-1.869 1.869-1.869a1.87 1.87 0 001.869-1.869v-3.739a1.87 1.87 0 00-1.869-1.869 1.869 1.869 0 01-1.869-1.869 1.87 1.87 0 00-1.87-1.87h-7.476a1.869 1.869 0 00-1.869 1.87 1.87 1.87 0 01-1.87 1.869 1.87 1.87 0 00-1.869 1.869v7.477a1.869 1.869 0 01-1.869 1.869 1.87 1.87 0 00-1.869 1.87v7.477a1.87 1.87 0 01-1.869 1.869 1.869 1.869 0 00-1.869 1.869V246.064a1.87 1.87 0 01-1.87 1.869h-3.738a1.87 1.87 0 00-1.869 1.869 1.869 1.869 0 01-1.869 1.869 1.87 1.87 0 00-1.869 1.87v3.738c0 1.033.837 1.869 1.869 1.869a1.87 1.87 0 011.869 1.87v3.738a1.869 1.869 0 01-1.869 1.869 1.87 1.87 0 00-1.869 1.87v7.477a1.87 1.87 0 01-1.869 1.869 1.87 1.87 0 00-1.87 1.869v11.216a1.87 1.87 0 01-1.869 1.869 1.87 1.87 0 00-1.869 1.869v11.216a1.87 1.87 0 001.869 1.869 1.87 1.87 0 011.869 1.869 1.87 1.87 0 001.87 1.869h3.738a1.87 1.87 0 001.869-1.869 1.87 1.87 0 011.869-1.869 1.87 1.87 0 001.869-1.869v-3.739a1.87 1.87 0 011.869-1.869 1.87 1.87 0 001.87-1.869v-7.477c0-1.033.836-1.87 1.869-1.87a1.869 1.869 0 001.869-1.869v-11.215a1.87 1.87 0 011.869-1.87 1.869 1.869 0 001.869-1.869v-7.477a1.87 1.87 0 011.869-1.869 1.87 1.87 0 001.87-1.869c0-1.033.836-1.87 1.869-1.87a1.869 1.869 0 001.869-1.869 1.87 1.87 0 011.869-1.869h1.869a3.739 3.739 0 013.739 3.738v1.87a1.87 1.87 0 01-1.87 1.869 1.87 1.87 0 00-1.869 1.869V275.972a1.87 1.87 0 01-1.869 1.869 1.87 1.87 0 00-1.869 1.869v3.739a1.87 1.87 0 01-1.869 1.869 1.869 1.869 0 00-1.869 1.869v7.477c0 1.033.836 1.869 1.869 1.869a1.87 1.87 0 011.869 1.87 1.87 1.87 0 001.869 1.869h3.738a1.87 1.87 0 001.87-1.869c0-1.033.836-1.87 1.869-1.87a1.87 1.87 0 001.869-1.869 1.87 1.87 0 011.869-1.869 1.87 1.87 0 001.869-1.869v-7.477a1.87 1.87 0 011.869-1.87 1.868 1.868 0 001.869-1.869v-11.215a1.87 1.87 0 011.87-1.87 1.869 1.869 0 001.869-1.869v-11.215a1.87 1.87 0 011.869-1.87 1.869 1.869 0 001.869-1.869v-11.215a1.87 1.87 0 011.869-1.87 1.868 1.868 0 001.869-1.869v-7.477a1.87 1.87 0 011.87-1.869 1.87 1.87 0 001.869-1.869v-11.216a1.87 1.87 0 011.869-1.869 1.87 1.87 0 001.869-1.869v-11.216z"
    fill="url(#paint2_linear)"/>
  <path
    d="M132.636 214.286a1.87 1.87 0 01-1.87-1.869 1.87 1.87 0 00-1.869-1.869 1.87 1.87 0 01-1.869-1.869 1.87 1.87 0 00-1.869-1.87h-3.738a1.87 1.87 0 00-1.87 1.87 1.869 1.869 0 01-1.869 1.869 1.87 1.87 0 00-1.869 1.869v11.216a1.87 1.87 0 01-1.869 1.869 1.87 1.87 0 00-1.869 1.869v7.477a1.87 1.87 0 01-1.869 1.869 1.87 1.87 0 00-1.87 1.869v7.478a1.87 1.87 0 01-3.738 0v-13.085a3.739 3.739 0 10-7.477 0v5.608a1.87 1.87 0 01-1.869 1.869 1.87 1.87 0 00-1.869 1.869v7.477a1.87 1.87 0 01-3.738 0v-14.954a1.87 1.87 0 011.869-1.869 1.87 1.87 0 001.87-1.869v-14.955a1.87 1.87 0 011.868-1.869 1.87 1.87 0 001.87-1.869v-11.216a1.87 1.87 0 00-1.87-1.869 1.87 1.87 0 01-1.869-1.869 1.87 1.87 0 00-1.87-1.869h-7.476a1.87 1.87 0 00-1.869 1.869 1.87 1.87 0 01-1.869 1.869 1.87 1.87 0 00-1.87 1.869v7.478a1.87 1.87 0 01-1.868 1.869 1.87 1.87 0 00-1.87 1.869v14.954a1.87 1.87 0 01-1.869 1.869 1.87 1.87 0 00-1.869 1.869v14.955a1.87 1.87 0 01-1.869 1.869 1.87 1.87 0 00-1.869 1.869v22.431a1.87 1.87 0 01-1.87 1.869 1.87 1.87 0 00-1.868 1.869v22.432a1.87 1.87 0 01-1.87 1.869 1.87 1.87 0 00-1.869 1.869v14.954a1.87 1.87 0 01-1.869 1.869A1.87 1.87 0 0056 320.833v14.955a1.87 1.87 0 001.87 1.869 1.87 1.87 0 011.868 1.869v1.869a3.739 3.739 0 003.739 3.739h1.869a1.87 1.87 0 001.869-1.87 1.87 1.87 0 011.87-1.869 1.87 1.87 0 001.868-1.869v-3.739a1.87 1.87 0 011.87-1.869 1.87 1.87 0 001.869-1.869v-3.739a1.87 1.87 0 011.869-1.869 1.87 1.87 0 001.869-1.869v-14.954a1.87 1.87 0 011.87-1.869 1.87 1.87 0 001.868-1.869v-7.478a1.87 1.87 0 011.87-1.869 1.87 1.87 0 001.868-1.869v-11.216a1.87 1.87 0 011.87-1.869 1.87 1.87 0 001.869-1.869 1.87 1.87 0 013.738 0v7.477a1.87 1.87 0 01-1.869 1.869 1.87 1.87 0 00-1.87 1.869V309.618a1.87 1.87 0 001.87 1.869 1.87 1.87 0 011.87 1.869v3.739a1.87 1.87 0 001.868 1.869 1.87 1.87 0 011.87 1.869 1.87 1.87 0 103.739 0 1.87 1.87 0 011.868-1.869 1.87 1.87 0 001.869-1.869v-3.739a1.87 1.87 0 011.869-1.869 1.869 1.869 0 001.869-1.869v-11.216a1.87 1.87 0 011.87-1.869 1.87 1.87 0 001.869-1.869v-7.477a1.87 1.87 0 011.869-1.869 1.87 1.87 0 001.869-1.869v-7.478a1.87 1.87 0 011.869-1.869 1.869 1.869 0 001.869-1.869v-11.216a1.87 1.87 0 011.87-1.869 1.87 1.87 0 001.869-1.869v-7.477a1.87 1.87 0 011.869-1.869 1.87 1.87 0 001.869-1.869v-11.216a1.87 1.87 0 011.869-1.869 1.87 1.87 0 001.869-1.869v-7.478a1.87 1.87 0 011.87-1.869 1.87 1.87 0 001.869-1.869v-3.739a1.87 1.87 0 00-1.869-1.869z"
    fill="url(#paint3_linear)"/>
  <path
    d="M304.599 143.255a1.87 1.87 0 00-1.87 1.869 1.87 1.87 0 01-1.869 1.87h-7.476c-1.033 0-1.87.836-1.87 1.869a1.869 1.869 0 01-1.869 1.869h-7.476a1.87 1.87 0 00-1.87 1.869 1.868 1.868 0 01-1.869 1.869h-3.738a1.87 1.87 0 00-1.869 1.87 1.87 1.87 0 01-1.869 1.869h-3.739a1.87 1.87 0 00-1.869 1.869 1.869 1.869 0 01-1.869 1.869 1.87 1.87 0 000 3.739h7.477a1.87 1.87 0 001.869-1.869 1.87 1.87 0 011.869-1.87h1.869a3.738 3.738 0 013.738 3.739v5.608a1.869 1.869 0 01-1.869 1.869 1.87 1.87 0 00-1.869 1.869v14.954a1.869 1.869 0 01-1.869 1.869 1.87 1.87 0 00-1.869 1.87v14.954a1.87 1.87 0 01-1.869 1.869 1.869 1.869 0 00-1.869 1.869v11.216a1.87 1.87 0 01-1.87 1.869 1.87 1.87 0 00-1.869 1.869v11.216a1.87 1.87 0 01-1.869 1.869 1.87 1.87 0 00-1.869 1.869v11.216a1.87 1.87 0 01-1.869 1.869 1.869 1.869 0 00-1.869 1.869v3.739a1.87 1.87 0 01-1.87 1.869 1.87 1.87 0 00-1.869 1.869 1.87 1.87 0 01-1.869 1.869h-3.738a1.87 1.87 0 00-1.869 1.87 1.87 1.87 0 01-1.87 1.869h-3.738a1.869 1.869 0 100 3.738 1.87 1.87 0 011.869 1.87 1.87 1.87 0 001.87 1.869h7.476a1.87 1.87 0 001.869-1.869 1.87 1.87 0 011.869-1.87h3.739a1.869 1.869 0 001.869-1.869 1.87 1.87 0 011.869-1.869h11.215a1.87 1.87 0 001.869-1.869 1.87 1.87 0 011.869-1.87h3.739a1.869 1.869 0 001.869-1.869 1.87 1.87 0 011.869-1.869h7.477a1.87 1.87 0 001.869-1.869 1.87 1.87 0 011.869-1.87 1.87 1.87 0 000-3.738 1.87 1.87 0 01-1.869-1.869 1.87 1.87 0 00-1.87-1.87h-3.738a1.87 1.87 0 00-1.869 1.87 1.87 1.87 0 01-1.869 1.869h-3.738a1.87 1.87 0 00-1.87 1.869 1.869 1.869 0 11-3.738 0v-7.477a1.87 1.87 0 011.869-1.869 1.869 1.869 0 001.869-1.869v-11.216a1.87 1.87 0 011.87-1.869 1.87 1.87 0 001.869-1.869v-11.216a1.87 1.87 0 011.869-1.869 1.87 1.87 0 001.869-1.869v-14.954a1.87 1.87 0 011.869-1.87 1.868 1.868 0 001.869-1.869v-11.215a1.87 1.87 0 011.87-1.87 1.869 1.869 0 001.869-1.869v-14.954a1.87 1.87 0 011.869-1.869 1.87 1.87 0 001.869-1.869v-5.608a3.739 3.739 0 013.738-3.739h1.869c1.033 0 1.87-.836 1.87-1.869a1.87 1.87 0 011.869-1.869h3.738a1.87 1.87 0 001.869-1.869c0-1.033.837-1.869 1.869-1.869a1.87 1.87 0 100-3.739h-11.214z"
    fill="url(#paint4_linear)"/>
  <path
    d="M356.935 154.47a1.869 1.869 0 01-1.869-1.869 1.87 1.87 0 00-1.869-1.869 1.869 1.869 0 01-1.869-1.869 1.869 1.869 0 00-1.87-1.869h-3.738a1.87 1.87 0 01-1.869-1.87 1.87 1.87 0 00-1.869-1.869h-11.215a1.87 1.87 0 00-1.869 1.869 1.87 1.87 0 01-1.87 1.87h-3.738a1.869 1.869 0 00-1.869 1.869 1.87 1.87 0 01-1.869 1.869 1.87 1.87 0 00-1.869 1.869 1.869 1.869 0 01-1.869 1.869 1.87 1.87 0 00-1.87 1.87 1.869 1.869 0 01-1.869 1.869 1.87 1.87 0 00-1.869 1.869 1.869 1.869 0 01-1.869 1.869 1.87 1.87 0 00-1.869 1.87v3.738a1.869 1.869 0 01-1.869 1.869 1.869 1.869 0 00-1.869 1.87v14.954c0 1.032.836 1.869 1.869 1.869h.934c.516 0 .935.418.935.935 0 .516.418.934.934.934h.935a1.87 1.87 0 011.869 1.869v1.87a1.87 1.87 0 001.869 1.869c1.033 0 1.869.837 1.869 1.869 0 1.033.837 1.869 1.87 1.869a1.87 1.87 0 011.869 1.87 1.87 1.87 0 001.869 1.869h1.869a1.87 1.87 0 011.869 1.869v.935c0 .516.419.934.935.934s.934.419.934.935v.935a1.87 1.87 0 001.87 1.869 1.87 1.87 0 010 3.738 1.87 1.87 0 00-1.87 1.87 1.869 1.869 0 01-1.869 1.869 1.87 1.87 0 00-1.869 1.869 1.87 1.87 0 01-1.869 1.869 1.87 1.87 0 00-1.869 1.87 1.87 1.87 0 01-1.869 1.869h-3.739a1.87 1.87 0 00-1.869 1.869 1.869 1.869 0 01-1.869 1.869h-3.738a1.869 1.869 0 00-1.869 1.87 1.87 1.87 0 01-1.87 1.869 1.87 1.87 0 00-1.869 1.869 1.87 1.87 0 01-1.869 1.869h-3.738a1.869 1.869 0 00-1.869 1.87 1.87 1.87 0 01-1.87 1.869 1.87 1.87 0 000 3.738 1.87 1.87 0 011.87 1.87c0 1.032.836 1.869 1.869 1.869h11.215a1.87 1.87 0 001.869-1.869 1.87 1.87 0 011.869-1.87h3.738a1.869 1.869 0 001.869-1.869 1.87 1.87 0 011.87-1.869 1.87 1.87 0 001.869-1.869 1.87 1.87 0 011.869-1.87h3.738a1.869 1.869 0 001.869-1.869 1.87 1.87 0 011.87-1.869 1.87 1.87 0 001.869-1.869 1.87 1.87 0 011.869-1.87h3.738a1.87 1.87 0 001.869-1.869 1.87 1.87 0 011.87-1.869 1.87 1.87 0 001.869-1.869v-3.739a1.87 1.87 0 011.869-1.869 1.87 1.87 0 001.869-1.869V204.94a1.87 1.87 0 00-1.869-1.869 1.87 1.87 0 01-1.869-1.869 1.87 1.87 0 00-1.869-1.87 1.869 1.869 0 01-1.87-1.869 1.869 1.869 0 00-1.869-1.869 1.87 1.87 0 01-1.869-1.869 1.87 1.87 0 00-1.869-1.87 1.869 1.869 0 01-1.869-1.869 1.87 1.87 0 00-1.869-1.869 1.87 1.87 0 01-1.87-1.869c0-1.033-.836-1.87-1.869-1.87a1.869 1.869 0 01-1.869-1.869 1.87 1.87 0 00-1.869-1.869 1.87 1.87 0 010-3.739 1.869 1.869 0 001.869-1.869v-3.738a1.87 1.87 0 011.869-1.87 1.868 1.868 0 001.869-1.869 1.87 1.87 0 011.87-1.869 1.87 1.87 0 001.869-1.869 1.87 1.87 0 011.869-1.87 1.869 1.869 0 001.869-1.869 1.87 1.87 0 011.869-1.869h7.477a1.87 1.87 0 011.869 1.869c0 1.033.837 1.869 1.869 1.869h7.477a1.869 1.869 0 001.869-1.869 1.87 1.87 0 011.869-1.869 1.87 1.87 0 000-3.739z"
    fill="url(#paint5_linear)"/>
  <g clip-path="url(#clip0)">
    <path
      d="M429.851 290.926v-3.739h-11.215v-3.738h-7.477v-3.739h-3.739v-3.738h7.477v-3.739h-3.738v-3.738h-7.477v-3.739h-22.431v3.739h-18.693v3.738h-22.431v3.739h-18.692v3.738H306.481v3.739h-14.954v3.738h-14.954v3.739h-14.955v3.738h-14.954v3.739H231.71v3.738h-14.954v3.739h-11.215v3.738h-14.954v3.739h-11.216v3.738h-11.215v3.739H156.94v3.738h-11.215v3.739h-11.216v3.738h-11.215v3.739h-7.477v3.738h-11.216v3.739H93.386v3.738h-3.739v3.739H85.91v3.738h3.738v3.739h3.739v3.738H82.17v7.477h7.477v3.739H85.91v3.738H82.17v3.739h3.739v3.738H82.17v3.739h3.739v3.738h3.738v3.739H82.17v3.738h14.954v-3.738h7.477v-3.739h11.216v-3.738h11.215v-3.739h11.216v-3.738h11.215v-3.739h11.216v-3.738h11.215v-3.739h11.216v-3.738h14.954v-3.739h11.215v-3.738h11.216v-3.739h14.954v-3.738h11.215v-3.739h14.954v-3.738h11.216v-3.739h14.954v-3.738h14.954v-3.739h14.954v-3.738h14.954v-3.739h14.954v-3.738h14.954v-3.739h14.954v-3.738h18.693v-3.739h14.954v-3.738h7.477v-3.739h7.477v-3.738h3.738v-3.739h-3.738v-3.738h3.738z"
      fill="#FFD951"/>
    <path
      d="M131.588 352.992l-2.125 4.463 11.265-4.038-7.227 13.816 18.918-6.802 6.802-13.816 10.84-4.039 1.913-4.251-40.386 14.667zM205.133 327.272s-6.376 11.053-7.439 12.753c-1.063 1.913-2.551 3.614-5.739 4.251-3.189.851-3.189-.425-2.976-1.275.213-.85 7.44-12.966 7.44-12.966l-18.706 6.164s-5.739 11.053-6.589 12.966c-.85 2.126 1.7 4.039 18.705-1.488 17.005-5.314 25.295-12.116 26.357-14.241 1.063-2.126 6.59-11.903 6.59-11.903l-17.643 5.739zM261.036 318.557c7.44-3.826 8.928-4.676 9.99-6.589 1.063-1.913 1.701-4.464-7.439-1.913-8.928 2.55-33.584 9.352-33.584 9.352l-10.628 18.28 17.642-4.889 4.676-8.077s5.102-1.488 5.952-1.488c.85 0 .85 1.488.425 2.338-.425.851-2.338 4.039-2.338 4.039l18.28-4.889s1.488-3.613 2.338-4.889c.638-1.062.213-2.763-5.314-1.275zm-7.652-1.7c-.638 3.188-5.526 4.038-7.439 4.463-1.913.425-1.701-.637-1.488-1.488 0 0 1.488-2.55 1.913-2.763.637 0 7.439-2.763 7.014-.212zM320.128 297.726c.637-1.276.637-2.338-5.739-.85-6.165 1.487-34.01 8.714-34.01 8.714l-10.203 18.28s23.382-6.801 29.121-8.289c5.526-1.701 12.328-4.464 14.454-6.59 2.338-1.913 4.038-5.314-.85-4.251-4.677 1.063-5.952 1.276-5.739.638.212-.425 9.565-1.488 12.966-7.652zm-25.082 16.367c-1.913.637-6.377 1.488-6.377 1.488l2.976-4.889s6.802-2.126 7.227-1.275c.637.637-1.913 4.038-3.826 4.676zm4.251-7.015c-1.701.425-5.527 1.276-5.527 1.276l2.338-4.251s5.74-2.339 6.377-1.063c.425.85-1.488 3.613-3.188 4.038zM362.427 286.248c-5.739 1.275-16.367 3.401-19.768 4.251-3.401.85-13.179 3.614-17.643 8.502-1.7 1.913-3.401 4.677-3.401 4.677-1.487 2.763-4.251 7.439 5.102 5.526 9.14-1.7 14.666-2.763 20.831-4.463 6.164-1.701 12.753-4.252 15.729-8.29 2.976-4.039 3.188-4.039 4.464-6.377 1.063-2.126.425-5.101-5.314-3.826zm-13.391 9.778c-1.701 2.55-4.464 6.376-5.102 6.589-.638.425-1.7.85-3.826 1.063-2.125.425-4.251.637-3.613-.425.637-1.063 5.526-8.715 6.164-9.566.637-.85 1.063-1.062 1.7-1.275 1.063-.425 6.377-1.488 6.59-1.063.425.638-.213 2.126-1.913 4.677z"
      fill="#060968"/>
  </g>
  <defs>
    <linearGradient id="paint0_linear" x1="405.533" y1="104" x2="405.533" y2="249.801" gradientUnits="userSpaceOnUse">
      <stop stop-color="#EF2F00"/>
      <stop offset="1" stop-color="#FFD951"/>
    </linearGradient>
    <linearGradient id="paint1_linear" x1="214.878" y1="180.64" x2="214.878" y2="281.579" gradientUnits="userSpaceOnUse">
      <stop stop-color="#EF2F00"/>
      <stop offset="1" stop-color="#FFD951"/>
    </linearGradient>
    <linearGradient id="paint2_linear" x1="155.065" y1="191.855" x2="155.065" y2="311.487" gradientUnits="userSpaceOnUse">
      <stop stop-color="#EF2F00"/>
      <stop offset="1" stop-color="#FFD951"/>
    </linearGradient>
    <linearGradient id="paint3_linear" x1="95.252" y1="195.594" x2="95.252" y2="345.134" gradientUnits="userSpaceOnUse">
      <stop stop-color="#EF2F00"/>
      <stop offset="1" stop-color="#FFD951"/>
    </linearGradient>
    <linearGradient id="paint4_linear" x1="278.43" y1="143.255" x2="278.43" y2="277.841" gradientUnits="userSpaceOnUse">
      <stop stop-color="#EF2F00"/>
      <stop offset="1" stop-color="#FFD951"/>
    </linearGradient>
    <linearGradient id="paint5_linear" x1="323.29" y1="143.255" x2="323.29" y2="247.933" gradientUnits="userSpaceOnUse">
      <stop stop-color="#EF2F00"/>
      <stop offset="1" stop-color="#FFD951"/>
    </linearGradient>
    <clipPath id="clip0">
      <rect x="82.17" y="264.756" width="347.681" height="134.586" rx="67.293" fill="#fff"/>
    </clipPath>
  </defs>
</svg>
