<svg width="6" height="79" viewBox="0 0 6 79" fill="none" xmlns="http://www.w3.org/2000/svg">
  <path d="M6 6L2 6L2 4L1.74846e-07 4L5.24537e-07 -5.24537e-07L2 -3.49691e-07L2 2L4 2L4 4L6 4L6 6Z" fill="#5256E0"/>
  <rect y="4" width="2" height="2" fill="#5256E0"/>
  <rect width="2" height="67" transform="matrix(-1 -8.74228e-08 -8.74228e-08 1 6 6)" fill="#5256E0"/>
  <rect width="4" height="67" transform="matrix(-1 -8.74228e-08 -8.74228e-08 1 4 6)" fill="#5256E0"/>
  <path d="M6 73L2 73L2 75L-1.74846e-07 75L-5.24537e-07 79L2 79L2 77L4 77L4 75L6 75L6 73Z" fill="#5256E0"/>
  <rect y="73" width="2" height="2" fill="#5256E0"/>
</svg>
