<svg width="6" height="79" viewBox="0 0 6 79" fill="none" xmlns="http://www.w3.org/2000/svg">
  <path d="M0 73L4 73L4 75L6 75L6 79L4 79L4 77L2 77L2 75L-6.10701e-07 75L0 73Z" fill="#FFCF33"/>
  <rect x="6" y="75" width="2" height="2" transform="rotate(-180 6 75)" fill="#FFCF33"/>
  <rect width="2" height="67" transform="matrix(1 2.10461e-08 3.0535e-07 -1 0 73)" fill="#FFCF33"/>
  <rect width="4" height="67" transform="matrix(1 2.10461e-08 3.0535e-07 -1 2 73)" fill="#FFCF33"/>
  <path d="M0 6L4 6L4 4L6 4L6 1.26277e-07L4 8.41844e-08L4 2L2 2L2 4L6.10701e-07 4L0 6Z" fill="#FFCF33"/>
  <rect x="6" y="6" width="2" height="2" transform="rotate(-180 6 6)" fill="#FFCF33"/>
</svg>
