<svg width="315" height="241" viewBox="0 0 315 241" fill="none" xmlns="http://www.w3.org/2000/svg">
  <g clip-path="url(#clip0)" filter="url(#filter0_d)">
    <path
      d="M311.942 10.2204H309.026V7.30017H300.28V10.2204H297.365H291.534V7.30017H285.704V10.2204H284.246H282.788V16.0609H276.958V18.9812H271.127V16.0609H265.296V18.9812H262.381V21.9014H259.466V24.8216H253.635V27.7419H247.804V30.6621H241.973V33.5824H256.55V30.6621H259.466V36.5026V45.2634H256.55V62.7848H253.635V77.3861H250.719V94.9076H247.804V103.668V106.589H244.889V109.509H239.058V112.429H233.227V115.349H239.058H241.973H244.889V118.27H247.804V121.19H253.635V118.27H256.55V115.349H259.466V113.889V112.429H262.381V109.509H265.296V112.429H268.212V115.349H274.042V112.429H276.958V106.589H279.873V103.668H285.704V100.748H291.534H294.45V97.8278H291.534V94.9076H282.788V97.8278H279.873V91.9873H282.788V77.3861H285.704V62.7848H288.619V51.1039H291.534V33.5824H294.45V27.7419V18.9812H297.365V16.0609H303.196V13.1407H311.942V10.2204ZM279.873 42.3431H276.958V56.9444H274.042V74.4658H271.127V89.0671H268.212V100.748H262.381V83.2266H265.296V68.6253H268.212V51.1039H271.127V36.5026H274.042V30.6621V27.7419H276.958H279.873V33.5824V42.3431Z"
      fill="url(#paint0_linear)"/>
    <path
      d="M142.852 78.8463V73.0058H139.936V70.0855H137.021V67.1653H125.36V70.0855H119.529V73.0058H116.614V75.926H113.698V81.7665H110.783V90.5273H107.868V102.208H104.952V116.809H102.037V137.251H104.952V143.092H107.868V146.012H119.529V143.092H125.36V140.171H131.19V137.251H134.106V134.331V131.411H137.021V122.65H139.936V110.969H142.852V96.3677H145.767V87.607V78.8463H142.852ZM134.106 93.4475H131.19V108.049H128.275V116.809H125.36V125.57H122.444V131.411V134.331H116.614V131.411H113.698V119.73H116.614V105.128H119.529V96.3677H122.444V87.607H125.36V78.8463H131.19V84.6868H134.106V87.607V93.4475Z"
      fill="url(#paint1_linear)"/>
    <path
      d="M104.952 78.8463H102.037V75.926H96.2063V78.8463H93.2909V87.607H90.3756V99.288H87.4603V108.049H84.5449V113.889H81.6296V116.809H75.7989V110.969H78.7142V102.208H81.6296V96.3677H84.5449V90.5273H81.6296V87.607H72.8835V90.5273H69.9682V99.288H67.0529V108.049H64.1375V116.809V118.27V119.73H58.3068V122.65H55.3915V128.49H58.3068V134.331H55.3915V143.092H52.4761V154.773H49.5608V166.454H52.4761V169.374H58.3068V166.454H61.2222V163.533V160.613H64.1375V151.852H67.0529V140.171H69.9682V131.411H72.8835V128.49H75.7989V125.57H81.6296V128.49V131.411H78.7142V134.331V140.171V143.092H75.7989V148.932H72.8835V157.693H75.7989V160.613H81.6296V157.693H84.5449V154.773H87.4603V146.012H90.3756V134.331H93.2909V122.65H96.2063V110.969H99.1216V102.208H102.037V90.5273H104.952V78.8463Z"
      fill="url(#paint2_linear)"/>
    <path
      d="M58.3069 93.4477V90.5274H55.3915V87.6072H49.5608V90.5274H46.6455V102.208H43.7302V110.969H40.8148V119.73H37.8995V105.129H34.9841H32.0688V113.889H29.1534V122.65H26.2381V108.049H29.1534V93.4477H32.0688V81.7667H29.1534V78.8464H20.4074V81.7667H17.4921V90.5274H14.5767V97.828V102.208V105.129H11.6614V118.27V119.73H8.74603V140.172H5.83069V160.613H2.91534V175.215H0V189.816H2.91534V192.736V195.656H8.74603V192.736H11.6614V186.896H14.5767V181.055H17.4921V166.454H20.4074V157.693H23.3228V146.012H26.2381V143.092H29.1534V151.853H26.2381V160.613V162.073V169.374H29.1534V175.215H32.0688V178.135H34.9841V175.215H37.8995V169.374H40.8148V157.693H43.7302V148.932H46.6455V140.172H49.5608V128.491H52.4762V119.73H55.3915V108.049H58.3069V99.2882H61.2222V93.4477H58.3069Z"
      fill="url(#paint3_linear)"/>
    <path
      d="M192.413 37.9631V40.8834H189.497H183.667V43.8036H177.836H174.921V46.7239H169.09V49.6441H163.259V52.5644H160.344V55.4846H169.09V52.5644H174.921V61.3251H172.005V75.9263H169.09V90.5276H166.175V102.209H163.259V113.89H160.344V125.571H157.429V128.491V131.411H154.513V134.331H148.683V137.251H142.852V140.172H145.767V143.092H154.513V140.172H160.344V137.251H163.259H169.09H172.005V134.331H177.836V131.411H186.582V128.491H189.497V125.571H186.582V122.65H180.751V125.571H174.921V128.491H172.005V119.73H174.921V108.049H177.836V96.368H180.751V81.7668H183.667V70.0858H186.582V55.4846H189.497V49.6441V46.7239H195.328V43.8036H201.159V40.8834H204.074V37.9631H192.413Z"
      fill="url(#paint4_linear)"/>
    <path
      d="M233.228 46.7239V43.8036H230.312V40.8834H224.481V37.9631H212.82V40.8834H206.989V43.8036H204.074V46.7239H201.159V49.6441H198.243V52.5644H195.328V54.0245V58.4049H192.413V73.0061H195.328V74.4662H198.243V78.8466H201.159V81.7668H204.074V84.6871H208.447V87.6073H209.905V90.5276H212.82V93.4478H209.905V96.368H206.989V99.2883H204.074V102.209H198.243V105.129H192.413V108.049H189.497V110.969H183.667V113.89H180.751V116.81H183.667V119.73H195.328V116.81H198.243H201.159V113.89H204.074V110.969H209.905V108.049H212.82V105.129H215.735H218.651V102.209H221.566V99.2883V96.368H224.481V84.6871H221.566V81.7668H218.651V78.8466H215.735V75.9263H212.82V73.0061H209.905V70.0858H206.989V67.1656H204.074V64.2453H206.989V58.4049H209.905V55.4846H212.82V52.5644H215.735V49.6441H224.481V52.5644H233.228V49.6441H236.143V46.7239H233.228Z"
      fill="url(#paint5_linear)"/>
    <g clip-path="url(#clip1)">
      <path
        d="M292.401 153.51V150.586H283.629V147.662H277.781V144.738H274.857V141.814H280.705V138.89H277.781V135.966H271.933V133.042H254.389V135.966H239.769V138.89H222.225V141.814H207.605V144.738H198.833H195.909V147.662H184.213V150.586H172.516V153.51H160.82V156.434H149.124V159.358H137.428V162.282H125.732V165.206H116.96V168.13H105.264V171.054H96.4923V173.978H87.7203V176.902H78.9483V179.826H70.1763V182.75H61.4042V185.674H52.6322V188.598H46.7842V191.522H38.0122V194.446H29.2402V197.37H26.3162V200.294H23.3921V203.218H26.3162V206.142H29.2402V209.066H20.4681V211.99V214.914H26.3162V217.838H23.3921V220.762H20.4681V223.686H23.3921V226.61H20.4681V229.534H23.3921V232.458H26.3162V235.382H20.4681V238.306H32.1642V235.382H38.0122V232.458H46.7842V229.534H55.5562V226.61H64.3282V223.686H67.2523H73.1003V220.762H81.8723V217.838H90.6443V214.914H99.4163V211.99H105.264H111.112V209.066H119.884V206.142H128.656V203.218H140.352V200.294H149.124V197.37H160.82V194.446H169.592V191.522H181.289V188.598H192.985V185.674H204.681V182.75H216.377V179.826H228.073V176.902H239.769V173.978H251.465V171.054H266.085V168.13H274.857H277.781V165.206H283.629V162.282H289.477V159.358H292.401V156.434H289.477V153.51H292.401Z"
        fill="#FFD951"/>
      <path d="M59.1194 202.054L57.4569 205.545L66.2681 202.386L60.6156 213.193L75.4118 207.873L80.7318 197.066L89.2105 193.908L90.7067 190.583L59.1194 202.054Z" fill="#060968"/>
      <path
        d="M116.642 181.937C116.642 181.937 111.654 190.582 110.823 191.912C109.992 193.408 108.828 194.738 106.334 195.237C103.84 195.902 103.84 194.905 104.007 194.24C104.173 193.575 109.825 184.098 109.825 184.098L95.1955 188.92C95.1955 188.92 90.7068 197.565 90.0418 199.061C89.3768 200.723 91.3718 202.22 104.672 197.897C117.972 193.741 124.455 188.421 125.287 186.758C126.118 185.096 130.44 177.448 130.44 177.448L116.642 181.937Z"
        fill="#060968"/>
      <path
        d="M160.365 175.121C166.184 172.129 167.348 171.464 168.179 169.967C169.01 168.471 169.509 166.476 162.36 168.471C155.378 170.466 136.093 175.786 136.093 175.786L127.78 190.084L141.579 186.26L145.236 179.942C145.236 179.942 149.226 178.779 149.891 178.779C150.556 178.779 150.556 179.942 150.224 180.607C149.891 181.272 148.395 183.766 148.395 183.766L162.693 179.942C162.693 179.942 163.856 177.116 164.521 176.119C165.02 175.287 164.688 173.957 160.365 175.121ZM154.38 173.791C153.881 176.285 150.058 176.95 148.561 177.282C147.065 177.615 147.231 176.784 147.398 176.119C147.398 176.119 148.561 174.124 148.894 173.957C149.393 173.957 154.713 171.796 154.38 173.791Z"
        fill="#060968"/>
      <path
        d="M206.582 158.828C207.081 157.831 207.081 157 202.094 158.163C197.273 159.327 175.494 164.98 175.494 164.98L167.514 179.277C167.514 179.277 185.801 173.957 190.29 172.793C194.613 171.463 199.933 169.302 201.595 167.64C203.424 166.143 204.754 163.483 200.93 164.315C197.273 165.146 196.275 165.312 196.441 164.813C196.608 164.481 203.922 163.65 206.582 158.828ZM186.965 171.63C185.469 172.128 181.978 172.793 181.978 172.793L184.305 168.97C184.305 168.97 189.625 167.307 189.958 167.972C190.456 168.471 188.461 171.131 186.965 171.63ZM190.29 166.143C188.96 166.476 185.968 167.141 185.968 167.141L187.796 163.816C187.796 163.816 192.285 161.987 192.784 162.985C193.116 163.65 191.62 165.811 190.29 166.143Z"
        fill="#060968"/>
      <path
        d="M239.666 149.851C235.177 150.849 226.865 152.511 224.205 153.176C221.545 153.841 213.897 156.003 210.406 159.826C209.076 161.323 207.746 163.484 207.746 163.484C206.582 165.645 204.421 169.303 211.736 167.806C218.885 166.476 223.207 165.645 228.029 164.315C232.85 162.985 238.004 160.99 240.331 157.831C242.658 154.673 242.825 154.673 243.822 152.844C244.653 151.181 244.155 148.854 239.666 149.851ZM229.192 157.499C227.862 159.494 225.701 162.486 225.202 162.653C224.704 162.985 223.872 163.318 222.21 163.484C220.547 163.816 218.885 163.983 219.384 163.151C219.882 162.32 223.706 156.335 224.205 155.67C224.704 155.005 225.036 154.839 225.535 154.673C226.366 154.34 230.522 153.509 230.689 153.841C231.021 154.34 230.522 155.504 229.192 157.499Z"
        fill="#060968"/>
    </g>
  </g>
  <defs>
    <filter id="filter0_d" x="0" y="0" width="314.866" height="240.924" filterUnits="userSpaceOnUse" color-interpolation-filters="sRGB">
      <feFlood flood-opacity="0" result="BackgroundImageFix"/>
      <feColorMatrix in="SourceAlpha" type="matrix" values="0 0 0 0 0 0 0 0 0 0 0 0 0 0 0 0 0 0 127 0" result="hardAlpha"/>
      <feOffset dx="2.92401" dy="2.92401"/>
      <feColorMatrix type="matrix" values="0 0 0 0 0.0196078 0 0 0 0 0.0313726 0 0 0 0 0.341176 0 0 0 1 0"/>
      <feBlend mode="normal" in2="BackgroundImageFix" result="effect1_dropShadow"/>
      <feBlend mode="normal" in="SourceGraphic" in2="effect1_dropShadow" result="shape"/>
    </filter>
    <linearGradient id="paint0_linear" x1="272.585" y1="7.30017" x2="272.585" y2="121.19" gradientUnits="userSpaceOnUse">
      <stop stop-color="#EF2F00"/>
      <stop offset="1" stop-color="#FFD951"/>
    </linearGradient>
    <linearGradient id="paint1_linear" x1="123.902" y1="67.1653" x2="123.902" y2="146.012" gradientUnits="userSpaceOnUse">
      <stop stop-color="#EF2F00"/>
      <stop offset="1" stop-color="#FFD951"/>
    </linearGradient>
    <linearGradient id="paint2_linear" x1="77.2566" y1="75.926" x2="77.2566" y2="169.374" gradientUnits="userSpaceOnUse">
      <stop stop-color="#EF2F00"/>
      <stop offset="1" stop-color="#FFD951"/>
    </linearGradient>
    <linearGradient id="paint3_linear" x1="30.6111" y1="78.8464" x2="30.6111" y2="195.656" gradientUnits="userSpaceOnUse">
      <stop stop-color="#EF2F00"/>
      <stop offset="1" stop-color="#FFD951"/>
    </linearGradient>
    <linearGradient id="paint4_linear" x1="173.463" y1="37.9631" x2="173.463" y2="143.092" gradientUnits="userSpaceOnUse">
      <stop stop-color="#EF2F00"/>
      <stop offset="1" stop-color="#FFD951"/>
    </linearGradient>
    <linearGradient id="paint5_linear" x1="208.447" y1="37.9631" x2="208.447" y2="119.73" gradientUnits="userSpaceOnUse">
      <stop stop-color="#EF2F00"/>
      <stop offset="1" stop-color="#FFD951"/>
    </linearGradient>
    <clipPath id="clip0">
      <rect width="311.942" height="238" fill="white"/>
    </clipPath>
    <clipPath id="clip1">
      <rect width="271.933" height="105.264" fill="white" transform="translate(20.4681 133.042)"/>
    </clipPath>
  </defs>
</svg>
