<svg width="34" height="14" viewBox="0 0 34 14" fill="none" xmlns="http://www.w3.org/2000/svg">
  <path d="M0 8.00055H4V10.0005H6L6 14.0005H4V12.0005H2V10.0005H0L0 8.00055Z" fill="#81E49A"/>
  <rect x="6" y="10.0005" width="2" height="2" transform="rotate(180 6 10.0005)" fill="#81E49A"/>
  <rect width="2" height="2" transform="matrix(1 0 0 -1 0 8.00055)" fill="#81E49A"/>
  <rect width="4" height="2" transform="matrix(1 0 0 -1 2 8.00055)" fill="#81E49A"/>
  <path d="M0 6.00055L4 6.00055L4 4.00055L6 4.00055L6 0.000549316H4L4 2.00055L2 2.00055L2 4.00055H0L0 6.00055Z" fill="#81E49A"/>
  <rect x="6" y="6.00055" width="2" height="2" transform="rotate(180 6 6.00055)" fill="#81E49A"/>
  <rect width="22" height="14" transform="translate(6 0.000549316)" fill="#81E49A"/>
  <path
    d="M13.3174 11.0005V3.89117H12.1357L12.126 8.76422L9.83105 3.89117H8.63965V11.0005H9.82617L9.83105 6.10797L12.1406 11.0005H13.3174ZM18.5131 7.81207V6.86481H15.5736V4.86285H18.9818V3.89117H14.3969V11.0005H19.0062V10.0338H15.5736V7.81207H18.5131ZM20.3641 11.0005H21.4725L22.1854 6.64996L22.2391 6.31305L22.2879 6.64996L23.0105 11.0005H24.1189L25.0564 3.89117H23.9627L23.4695 8.25641L23.4354 8.55426L23.3865 8.26129L22.6785 3.89117H21.7801L21.0965 8.24176L21.0477 8.53473L21.0135 8.25641L20.5252 3.89117H19.4363L20.3641 11.0005Z"
    fill="#1B7E34"/>
  <path d="M34 6.00055L30 6.00055L30 4.00055L28 4.00055L28 0.000548792L30 0.000548967L30 2.00055L32 2.00055L32 4.00055L34 4.00055L34 6.00055Z" fill="#81E49A"/>
  <rect x="28" y="4.00055" width="2" height="2" fill="#81E49A"/>
  <rect width="2" height="2" transform="matrix(-1 -8.74228e-08 -8.74228e-08 1 34 6.00055)" fill="#81E49A"/>
  <rect width="4" height="2" transform="matrix(-1 -8.74228e-08 -8.74228e-08 1 32 6.00055)" fill="#81E49A"/>
  <path d="M34 8.00055L30 8.00055L30 10.0005L28 10.0005L28 14.0005L30 14.0005L30 12.0005L32 12.0005L32 10.0005L34 10.0005L34 8.00055Z" fill="#81E49A"/>
  <rect x="28" y="8.00055" width="2" height="2" fill="#81E49A"/>
</svg>
