<svg width="8" height="50" viewBox="0 0 8 50" fill="none" xmlns="http://www.w3.org/2000/svg">
  <path d="M2 10H6V8H8V4H6V6H4V8H2V10Z" fill="#FFDB66"/>
  <path d="M4 2H8V4H6V6H4V8H2V10H0V6H2V4H4V2Z" fill="#202125"/>
  <rect x="6" y="8" width="2" height="2" fill="#FFCF33"/>
  <rect x="4" y="10" width="2" height="26" fill="#FFCF33"/>
  <rect x="2" y="10" width="2" height="26" fill="#FFDB66"/>
  <rect y="10" width="2" height="26" fill="#202125"/>
  <rect x="6" y="10" width="2" height="26" fill="#FFCF33"/>
  <path d="M2 36H6V38H8V42H6V40H4V38H2V36Z" fill="#FFDB66"/>
  <path d="M0 44H2V46H4V48H8V50H2V48H0V44Z" fill="#060968" fill-opacity="0.4"/>
  <path d="M4 48H8V46H6V44H4V42H2V36H0V44H2V46H4V48Z" fill="#202125"/>
  <rect x="6" y="36" width="2" height="2" fill="#FFCF33"/>
  <path d="M4 38H2V42H4V44H6V46H8V42H6V40H4V38Z" fill="#CC9C00"/>
</svg>
