<svg width="8" height="50" viewBox="0 0 8 50" fill="none" xmlns="http://www.w3.org/2000/svg">
  <path d="M6 12H2V10H0V6H2V8H4V10H6V12Z" fill="#FFDB66"/>
  <path d="M4 4H0V6H2V8H4V10H6V12H8V8H6V6H4V4Z" fill="#202125"/>
  <rect width="2" height="2" transform="matrix(-1 0 0 1 2 10)" fill="#FFCF33"/>
  <rect width="2" height="26" transform="matrix(-1 0 0 1 4 12)" fill="#FFCF33"/>
  <rect width="2" height="26" transform="matrix(-1 0 0 1 6 12)" fill="#FFDB66"/>
  <rect width="2" height="26" transform="matrix(-1 0 0 1 8 12)" fill="#202125"/>
  <rect width="2" height="26" transform="matrix(-1 0 0 1 2 12)" fill="#FFCF33"/>
  <path d="M6 38H2V40H0V44H2V42H4V40H6V38Z" fill="#FFDB66"/>
  <path d="M8 44H6V46H4V48H0V50H6V48H8V44Z" fill="#060968" fill-opacity="0.4"/>
  <path d="M4 48H0V46H2V44H4V42H6V38H8V44H6V46H4V48Z" fill="#202125"/>
  <rect width="2" height="2" transform="matrix(-1 0 0 1 2 38)" fill="#FFCF33"/>
  <path d="M4 40H6V42H4V44H2V46H0V44H2V42H4V40Z" fill="#CC9C00"/>
</svg>
