<svg width="8" height="50" viewBox="0 0 8 50" fill="none" xmlns="http://www.w3.org/2000/svg">
  <path d="M6 8H2V6H0V2H2V4H4V6H6V8Z" fill="#FFDB66"/>
  <path d="M4 0H0V2H2V4H4V6H6V8H8V4H6V2H4V0Z" fill="#202125"/>
  <rect width="2" height="2" transform="matrix(-1 0 0 1 2 6)" fill="#FFCF33"/>
  <rect width="2" height="26" transform="matrix(-1 0 0 1 4 8)" fill="#FFCF33"/>
  <rect width="2" height="26" transform="matrix(-1 0 0 1 6 8)" fill="#FFDB66"/>
  <rect width="2" height="26" transform="matrix(-1 0 0 1 8 8)" fill="#202125"/>
  <rect width="2" height="26" transform="matrix(-1 0 0 1 2 8)" fill="#FFCF33"/>
  <path d="M6 34H2V36H0V40H2V38H4V36H6V34Z" fill="#FFDB66"/>
  <path d="M8 44H6V46H4V48H0V50H6V48H8V44Z" fill="#060968" fill-opacity="0.4"/>
  <path d="M4 48H0V46H2V44H4V42H6V34H8V44H6V46H4V48Z" fill="#202125"/>
  <rect width="2" height="2" transform="matrix(-1 0 0 1 2 34)" fill="#FFCF33"/>
  <path d="M4 36H6V42H4V44H2V46H0V40H2V38H4V36Z" fill="#CC9C00"/>
</svg>
