<svg width="8" height="50" viewBox="0 0 8 50" fill="none" xmlns="http://www.w3.org/2000/svg">
  <path d="M6 10H2V8H0V4H2V6H4V8H6V10Z" fill="#FFDB66"/>
  <path d="M4 2H0V4H2V6H4V8H6V10H8V6H6V4H4V2Z" fill="#202125"/>
  <rect width="2" height="2" transform="matrix(-1 0 0 1 2 8)" fill="#FFCF33"/>
  <rect width="2" height="26" transform="matrix(-1 0 0 1 4 10)" fill="#FFCF33"/>
  <rect width="2" height="26" transform="matrix(-1 0 0 1 6 10)" fill="#FFDB66"/>
  <rect width="2" height="26" transform="matrix(-1 0 0 1 8 10)" fill="#202125"/>
  <rect width="2" height="26" transform="matrix(-1 0 0 1 2 10)" fill="#FFCF33"/>
  <path d="M6 36H2V38H0V42H2V40H4V38H6V36Z" fill="#FFDB66"/>
  <path d="M8 44H6V46H4V48H0V50H6V48H8V44Z" fill="#060968" fill-opacity="0.4"/>
  <path d="M4 48H0V46H2V44H4V42H6V36H8V44H6V46H4V48Z" fill="#202125"/>
  <rect width="2" height="2" transform="matrix(-1 0 0 1 2 36)" fill="#FFCF33"/>
  <path d="M4 38H6V42H4V44H2V46H0V42H2V40H4V38Z" fill="#CC9C00"/>
</svg>
