<svg width="6" height="52" viewBox="0 0 6 52" fill="none" xmlns="http://www.w3.org/2000/svg">
  <path d="M6 6L2 6L2 4L1.74846e-07 4L5.24537e-07 -5.24537e-07L2 -3.49691e-07L2 2L4 2L4 4L6 4L6 6Z" fill="#5256E0"/>
  <rect y="4" width="2" height="2" fill="#1F23AD"/>
  <rect width="2" height="40" transform="matrix(-1 -8.74228e-08 -8.74228e-08 1 6 6)" fill="#5256E0"/>
  <rect width="4" height="40" transform="matrix(-1 -8.74228e-08 -8.74228e-08 1 4 6)" fill="#1F23AD"/>
  <path d="M6 46L2 46L2 48L-1.74846e-07 48L-5.24537e-07 52L2 52L2 50L4 50L4 48L6 48L6 46Z" fill="#5256E0"/>
  <rect y="46" width="2" height="2" fill="#1F23AD"/>
</svg>
